<?xml version="1.0" encoding="UTF-8"?>
<svg version="1.1" xmlns="http://www.w3.org/2000/svg" width="424" height="424">
<path d="M0 0 C3.2450005 3.50000054 6.1400538 7.18291749 9 11 C9.52980469 11.63164063 10.05960937 12.26328125 10.60546875 12.9140625 C24.53454082 29.86794646 30.04479308 53.43889898 29 75 C28.61705567 78.38998813 28.03488092 81.71623245 27.375 85.0625 C27.10768066 86.4227832 27.10768066 86.4227832 26.83496094 87.81054688 C23.90456691 101.96172207 19.24971372 114.0430437 11 126 C10.6076416 126.57878906 10.2152832 127.15757812 9.81103516 127.75390625 C4.40252479 135.71303315 -1.41751039 142.96396827 -8 150 C-9.2565926 151.41082227 -10.50702976 152.82716149 -11.75 154.25 C-12.31332031 154.89324219 -12.87664062 155.53648437 -13.45703125 156.19921875 C-14.82005852 157.78999235 -16.13293983 159.42343723 -17.4375 161.0625 C-20.07553566 164.08658966 -22.87237401 166.61447573 -25.9375 169.19140625 C-28.40663587 171.35657653 -30.68529351 173.66995197 -33 176 C-33.90274658 176.9079834 -34.80549316 177.8159668 -35.7355957 178.75146484 C-36.20991531 179.22901215 -36.68423492 179.70655945 -37.17292786 180.19857788 C-39.31967149 182.35890064 -41.46925345 184.51639088 -43.61889648 186.67382812 C-44.74350194 187.8034592 -45.86720782 188.9339866 -46.98999023 190.06542969 C-52.65204896 195.76984795 -58.29457417 201.416263 -64.41479492 206.63525391 C-66.38068682 208.32774362 -68.19873035 210.13439929 -70 212 C-73.2215855 215.27202128 -76.58592145 218.29316055 -80.06640625 221.28515625 C-81.95494597 222.96004299 -83.73155648 224.69947587 -85.5 226.5 C-87.87042357 228.91332717 -90.30736308 231.17271853 -92.875 233.375 C-95.8846753 235.96634205 -98.71088616 238.67254783 -101.5 241.5 C-109.72939181 249.81496607 -109.72939181 249.81496607 -114 253 C-114.66 253 -115.32 253 -116 253 C-116 253.66 -116 254.32 -116 255 C-116.66 255 -117.32 255 -118 255 C-118 255.66 -118 256.32 -118 257 C-118.66 257 -119.32 257 -120 257 C-120 257.66 -120 258.32 -120 259 C-120.66 259 -121.32 259 -122 259 C-122 259.66 -122 260.32 -122 261 C-123.64453125 262.62109375 -123.64453125 262.62109375 -125.8125 264.4375 C-128.82463265 266.97339332 -128.82463265 266.97339332 -131.63671875 269.72265625 C-133 271 -133 271 -135 271 C-135 271.66 -135 272.32 -135 273 C-135.66 273 -136.32 273 -137 273 C-137 273.66 -137 274.32 -137 275 C-137.99 275 -138.98 275 -140 275 C-140.05802751 270.41671978 -140.09360593 265.83353396 -140.125 261.25 C-140.14175781 259.94804687 -140.15851563 258.64609375 -140.17578125 257.3046875 C-140.18222656 256.05429687 -140.18867188 254.80390625 -140.1953125 253.515625 C-140.20578613 252.36352539 -140.21625977 251.21142578 -140.22705078 250.02441406 C-140.00517519 247.06893578 -139.63420298 245.44044775 -138 243 C-136.34008942 241.98882512 -134.67166269 240.99162576 -133 240 C-130.25731646 237.68616166 -127.6648874 235.21948925 -125.0625 232.75 C-124.37220703 232.10675781 -123.68191406 231.46351563 -122.97070312 230.80078125 C-119.13789227 227.18958315 -115.63602924 223.53124944 -112.41967773 219.35644531 C-110.69269496 217.70638232 -109.32568964 217.39128975 -107 217 C-107 216.34 -107 215.68 -107 215 C-105.20703125 213.484375 -105.20703125 213.484375 -102.8125 211.75 C-99.86798787 209.5416159 -97.3434581 207.45491976 -95.0625 204.5625 C-94.381875 203.716875 -93.70125 202.87125 -93 202 C-92.34 202 -91.68 202 -91 202 C-91 201.34 -91 200.68 -91 200 C-90.34 200 -89.68 200 -89 200 C-89 199.34 -89 198.68 -89 198 C-87.35546875 196.59765625 -87.35546875 196.59765625 -85.1875 195.0625 C-83.08132929 193.56247678 -81.16296959 192.16841488 -79.36328125 190.30859375 C-78 189 -78 189 -76 189 C-76 188.34 -76 187.68 -76 187 C-74.52685547 185.56787109 -74.52685547 185.56787109 -72.4921875 183.8984375 C-68.0209246 180.09599527 -64.08630041 175.9472135 -60.125 171.625 C-55.07354534 166.18209989 -49.9684839 160.98619472 -44.3671875 156.1015625 C-32.14747431 145.30837338 -32.14747431 145.30837338 -23 132 C-22.34 132 -21.68 132 -21 132 C-21 131.34 -21 130.68 -21 130 C-20.34 130 -19.68 130 -19 130 C-18.7525 129.278125 -18.505 128.55625 -18.25 127.8125 C-17 125 -17 125 -15.171875 122.8046875 C-12.60391013 119.48850264 -10.83050118 116.07028851 -9 112.3125 C-8.65042236 111.60351562 -8.30084473 110.89453125 -7.94067383 110.1640625 C-5.35858261 104.87092615 -3.04651821 99.52361226 -1 94 C-0.71382813 93.28328125 -0.42765625 92.5665625 -0.1328125 91.828125 C2.40231813 85.40579408 3.1394946 79.6901857 3.125 72.8125 C3.12886719 70.99685547 3.12886719 70.99685547 3.1328125 69.14453125 C3.0975493 67.76276157 3.05243194 66.38122476 3 65 C2.97147949 64.15888672 2.94295898 63.31777344 2.91357422 62.45117188 C2.48788384 55.30973925 0.66040396 49.43268946 -2.125 42.875 C-2.49109375 41.95074219 -2.8571875 41.02648437 -3.234375 40.07421875 C-7.01005776 30.96891576 -12.26791328 24.0511983 -20 18 C-20.763125 17.195625 -21.52625 16.39125 -22.3125 15.5625 C-30.16412713 8.07606483 -38.8138773 5.03302204 -49 2 C-47.58290989 5.5578007 -46.14179995 6.79256329 -42.75 8.5 C-38.97853913 10.48016927 -35.42181802 12.45557122 -32 15 C-32 15.66 -32 16.32 -32 17 C-31.46375 17.20625 -30.9275 17.4125 -30.375 17.625 C-24.84570616 20.82617012 -21.71710401 24.99599456 -19.1328125 30.6640625 C-17.73265198 33.55129006 -16.09230755 36.25121927 -14.4375 39 C-9.25452624 47.87875591 -7.388872 54.69489204 -7 65 C-6.96745117 65.66854004 -6.93490234 66.33708008 -6.90136719 67.02587891 C-6.0002166 87.0651014 -11.03054432 101.74198548 -21 119 C-21.58523438 120.04800781 -22.17046875 121.09601563 -22.7734375 122.17578125 C-26.4000127 128.49830257 -30.39811267 133.87601034 -36.0625 138.5 C-38.4606359 140.54096673 -39.74714454 141.91301489 -41.4375 144.4375 C-43.6649475 147.74644131 -46.22577454 150.02546802 -49.3046875 152.53125 C-51.8842858 154.76610936 -53.85469824 157.34660046 -56 160 C-60.51612903 164.83870968 -60.51612903 164.83870968 -64 166 C-64 166.66 -64 167.32 -64 168 C-64.61875 168.0825 -65.2375 168.165 -65.875 168.25 C-68.15042479 168.79923543 -68.15042479 168.79923543 -69.125 170.875 C-69.558125 171.926875 -69.558125 171.926875 -70 173 C-72.16535409 176.24803114 -73.71342722 177.04199661 -77 179 C-78.49918863 180.36516797 -79.95248445 181.78194938 -81.36328125 183.23828125 C-82.57081055 184.46901367 -82.57081055 184.46901367 -83.80273438 185.72460938 C-85.46437503 187.43797425 -87.12583593 189.15151346 -88.78710938 190.86523438 C-93.58364241 195.75349394 -98.42113564 200.03766054 -104 204 C-105.32713705 205.06535187 -106.6449357 206.14295669 -107.9375 207.25 C-108.78634766 207.96929687 -108.78634766 207.96929687 -109.65234375 208.703125 C-111.12912917 209.97960577 -111.12912917 209.97960577 -112 212 C-112.66 212 -113.32 212 -114 212 C-114 212.66 -114 213.32 -114 214 C-114.66 214 -115.32 214 -116 214 C-116 214.66 -116 215.32 -116 216 C-117.73391951 217.60634015 -119.538091 219.1375287 -121.375 220.625 C-122.37273437 221.44226563 -123.37046875 222.25953125 -124.3984375 223.1015625 C-127 225 -127 225 -129 225 C-129 225.66 -129 226.32 -129 227 C-130.6796875 228.7265625 -130.6796875 228.7265625 -132.875 230.625 C-133.59429687 231.25664062 -134.31359375 231.88828125 -135.0546875 232.5390625 C-137 234 -137 234 -139 234 C-139.22400504 229.99892538 -139.38645348 226.00031431 -139.49438477 221.99438477 C-139.53940132 220.63501379 -139.60064542 219.2760728 -139.67895508 217.91821289 C-140.31123346 206.66531065 -140.31123346 206.66531065 -137.18725586 202.69775391 C-134.8774642 200.91206132 -132.52954016 199.45294225 -130 198 C-128.85048114 197.10186511 -127.72138237 196.17656253 -126.62109375 195.21875 C-126.10047363 194.77684326 -125.57985352 194.33493652 -125.04345703 193.87963867 C-124.51349121 193.42435791 -123.98352539 192.96907715 -123.4375 192.5 C-122.56520752 191.75230347 -122.56520752 191.75230347 -121.67529297 190.98950195 C-116.20417076 186.25535078 -110.92454809 181.32416373 -105.68139648 176.33984375 C-101.79453911 172.6490593 -97.83720368 169.06880069 -93.77490234 165.5715332 C-91.97909293 164.02867533 -91.97909293 164.02867533 -90.39306641 162.29760742 C-89 161 -89 161 -87 161 C-87 160.34 -87 159.68 -87 159 C-85.56640625 157.58984375 -85.56640625 157.58984375 -83.5625 155.9375 C-80.39242783 153.24825006 -77.41418475 150.46486623 -74.5 147.5 C-71.05015754 143.99653304 -67.46155565 140.76306138 -63.72265625 137.57421875 C-61.54675637 135.58581138 -59.82042464 133.31053896 -58 131 C-57.34 131 -56.68 131 -56 131 C-55.76667969 130.45472656 -55.53335937 129.90945312 -55.29296875 129.34765625 C-53.64469335 126.35486618 -51.55417595 124.01559899 -49.3125 121.4375 C-44.63641444 115.94168541 -40.61933887 110.25747591 -37 104 C-36.52691406 103.19046875 -36.05382812 102.3809375 -35.56640625 101.546875 C-28.3482436 88.26716924 -26.93536462 72.20802066 -29.65625 57.4375 C-31.56274397 51.12634756 -34.71418018 45.80364829 -38.4140625 40.375 C-39.80112491 38.2978228 -40.9438768 36.25863971 -42 34 C-42.66 34 -43.32 34 -44 34 C-44 33.34 -44 32.68 -44 32 C-44.55945313 31.74863281 -45.11890625 31.49726562 -45.6953125 31.23828125 C-48.35105416 29.81138276 -50.51508371 28.06323893 -52.875 26.1875 C-59.1177832 21.57654351 -65.61680833 19.2149575 -73 17 C-74.64935547 16.45279297 -74.64935547 16.45279297 -76.33203125 15.89453125 C-91.69021636 12.14903137 -108.41329197 15.30263295 -122.15234375 22.8515625 C-129.0721496 27.15266804 -135.19421957 31.85996622 -140.9921875 37.59375 C-143 39 -143 39 -145.12109375 38.8515625 C-147.39654605 37.82027643 -148.78183954 36.29887875 -150.4921875 34.51171875 C-163.17103575 21.80002375 -180.54672068 14.84538898 -198.3125 14.5625 C-216.14910574 14.68745303 -231.63333293 20.97393061 -244.5546875 33.38671875 C-250.36709259 39.5983785 -254.47167748 45.88275401 -257 54 C-257.52400391 55.56234375 -257.52400391 55.56234375 -258.05859375 57.15625 C-259.15902643 61.64930293 -259.30322061 65.709835 -259.25 70.3125 C-259.24323242 71.15554687 -259.23646484 71.99859375 -259.22949219 72.8671875 C-259.13119362 78.78338982 -258.71059308 84.30802652 -257 90 C-256.78988281 90.80566406 -256.57976562 91.61132812 -256.36328125 92.44140625 C-250.17234797 112.70538787 -233.29669158 128.85276681 -218.75 143.4375 C-218.27823334 143.91053558 -217.80646667 144.38357117 -217.32040405 144.87094116 C-212.32986352 149.85996267 -207.284458 154.7213129 -201.9296875 159.31762695 C-197.65216366 163.0469307 -193.58424251 167.01176393 -189.47265625 170.921875 C-188.79332031 171.56382812 -188.11398438 172.20578125 -187.4140625 172.8671875 C-186.8051416 173.44581543 -186.1962207 174.02444336 -185.56884766 174.62060547 C-184.0315332 176.09037518 -184.0315332 176.09037518 -182 177 C-182 177.66 -182 178.32 -182 179 C-181.46117187 179.21785156 -180.92234375 179.43570313 -180.3671875 179.66015625 C-177.18252763 181.46269476 -174.74067236 183.91578253 -172.125 186.4375 C-166.87174359 191.42029023 -161.41300482 195.9637201 -155.58251953 200.25756836 C-152.11854445 202.86935937 -149.91349518 205.11082191 -148 209 C-147.65942383 211.86254883 -147.65942383 211.86254883 -147.70703125 214.95703125 C-147.71669922 216.06884766 -147.72636719 217.18066406 -147.73632812 218.32617188 C-147.76146484 219.47666016 -147.78660156 220.62714844 -147.8125 221.8125 C-147.82603516 222.98232422 -147.83957031 224.15214844 -147.85351562 225.35742188 C-147.88879722 228.238752 -147.9380972 231.11913904 -148 234 C-151.42768661 233.41236963 -153.12590397 232.2684111 -155.609375 229.8671875 C-156.28226563 229.22523438 -156.95515625 228.58328125 -157.6484375 227.921875 C-158.34195313 227.24640625 -159.03546875 226.5709375 -159.75 225.875 C-161.11849123 224.55854266 -162.48828177 223.24343463 -163.859375 221.9296875 C-164.54306152 221.27403809 -165.22674805 220.61838867 -165.93115234 219.94287109 C-168.58525003 217.45038709 -171.32389433 215.06602683 -174.07617188 212.68310547 C-177.66164589 209.54627072 -181.120588 206.2717549 -184.59375 203.01171875 C-187.55994248 200.18075234 -187.55994248 200.18075234 -191 198 C-191 197.34 -191 196.68 -191 196 C-191.57234375 195.75636719 -192.1446875 195.51273438 -192.734375 195.26171875 C-195.40433538 193.77482702 -197.13829007 192.01916092 -199.25 189.8125 C-202.09914013 186.89341371 -204.96370846 184.09011446 -208.0625 181.4375 C-210.8322046 179.06268398 -213.44009866 176.59982183 -216 174 C-218.43900082 171.52340379 -220.90742422 169.17969143 -223.5625 166.9375 C-232.34555844 159.37431079 -240.83669432 150.9347629 -248.28125 142.046875 C-249.64361471 140.42442249 -251.04901288 138.83811865 -252.46875 137.265625 C-269.56862049 118.12060756 -282.23167533 94.82488263 -281.3203125 68.65234375 C-280.11837128 47.65296059 -271.24239001 30.57290116 -256.25 16.0625 C-250.84356086 11.47628736 -244.67148476 8.17152919 -238.44140625 4.84765625 C-235.01222538 3.07685982 -235.01222538 3.07685982 -232 1 C-243.30208352 1.39656433 -254.1827674 6.02823469 -263 13 C-263.66 13 -264.32 13 -265 13 C-265 13.66 -265 14.32 -265 15 C-269.47058824 19 -269.47058824 19 -272 19 C-272.26296875 19.5775 -272.5259375 20.155 -272.796875 20.75 C-274.0633429 23.11845944 -275.5232179 24.9465294 -277.25 27 C-289.31473821 42.40072612 -292.9901862 60.85972546 -291 80 C-289.99182102 86.21336974 -288.15130931 92.09754985 -286 98 C-285.75894531 98.67869141 -285.51789063 99.35738281 -285.26953125 100.05664062 C-280.08509296 114.25212641 -271.36372345 126.80668782 -261.02392578 137.77172852 C-258.9525697 140.0522191 -257.06708472 142.42146861 -255.1640625 144.84375 C-249.68913234 151.56723062 -243.625023 157.64217424 -237.46801758 163.73779297 C-235.53589074 165.65135356 -233.61219558 167.57310806 -231.68945312 169.49609375 C-230.46141332 170.71922791 -229.23291509 171.94190203 -228.00390625 173.1640625 C-227.14304161 174.0232579 -227.14304161 174.0232579 -226.26478577 174.89981079 C-223.3998475 177.80451963 -223.3998475 177.80451963 -220 180 C-220 180.66 -220 181.32 -220 182 C-219.34 182 -218.68 182 -218 182 C-218 182.66 -218 183.32 -218 184 C-217.443125 184.2475 -216.88625 184.495 -216.3125 184.75 C-213.57589087 186.22924818 -211.32349131 187.93467439 -209 190 C-209 190.66 -209 191.32 -209 192 C-208.4121875 192.27199219 -207.824375 192.54398438 -207.21875 192.82421875 C-202.82155068 195.15442473 -199.14684054 198.55720061 -196.0625 202.4375 C-193.74751498 205.3136935 -191.19786758 207.52831025 -188.3984375 209.921875 C-185.5916141 212.35384576 -182.85584948 214.85865833 -180.125 217.375 C-176.28202311 220.90830424 -172.43393463 224.43532292 -168.5625 227.9375 C-167.80066406 228.62714844 -167.03882813 229.31679688 -166.25390625 230.02734375 C-164.62417458 231.45371202 -162.93551262 232.81366848 -161.21484375 234.12890625 C-160.48394531 234.74636719 -159.75304687 235.36382812 -159 236 C-159 236.66 -159 237.32 -159 238 C-158.443125 238.268125 -157.88625 238.53625 -157.3125 238.8125 C-149.42712757 242.8617453 -149.42712757 242.8617453 -147 247 C-146.7512207 250.02441406 -146.7512207 250.02441406 -146.92578125 253.515625 C-147.00795898 255.39121094 -147.00795898 255.39121094 -147.09179688 257.3046875 C-147.16462891 258.60664063 -147.23746094 259.90859375 -147.3125 261.25 C-147.37373047 262.56742187 -147.43496094 263.88484375 -147.49804688 265.2421875 C-147.65129413 268.4957446 -147.81915068 271.74787942 -148 275 C-152.2823081 274.16098713 -154.05214732 272.22722974 -157.0625 269.0625 C-159.65653369 266.35144223 -161.87331281 264.08445813 -165 262 C-165 261.34 -165 260.68 -165 260 C-165.82757813 259.66548828 -165.82757813 259.66548828 -166.671875 259.32421875 C-169.7305676 257.58445903 -171.8073812 255.34235518 -174.25 252.8125 C-179.62770345 247.31353549 -185.25075077 242.25699683 -191.1875 237.375 C-193.95697873 235.03632907 -196.54695133 232.66949414 -199 230 C-199 229.34 -199 228.68 -199 228 C-199.56203125 227.76667969 -200.1240625 227.53335938 -200.703125 227.29296875 C-203.56734142 225.68062924 -205.47252021 223.6806438 -207.75 221.3125 C-210.74685171 218.24992786 -213.73771601 215.27824592 -217 212.5 C-221.20492843 208.9129386 -225.04023574 204.99282343 -228.8984375 201.0390625 C-230.83096046 198.95873909 -230.83096046 198.95873909 -233 198 C-233 197.34 -233 196.68 -233 196 C-233.56315918 195.7635376 -234.12631836 195.5270752 -234.70654297 195.28344727 C-237.52906271 193.70392988 -239.43189874 191.77564816 -241.6953125 189.46484375 C-243.01595703 188.12776367 -243.01595703 188.12776367 -244.36328125 186.76367188 C-245.27464844 185.83103516 -246.18601562 184.89839844 -247.125 183.9375 C-248.93789615 182.09027833 -250.75289358 180.24511579 -252.5703125 178.40234375 C-253.37227051 177.58241943 -254.17422852 176.76249512 -255.00048828 175.91772461 C-256.85596361 173.9485366 -256.85596361 173.9485366 -259 173 C-259 172.34 -259 171.68 -259 171 C-259.66 171 -260.32 171 -261 171 C-262.625 169.625 -262.625 169.625 -264 168 C-264 167.34 -264 166.68 -264 166 C-264.66 166 -265.32 166 -266 166 C-267.3046875 164.70703125 -267.3046875 164.70703125 -268.875 162.8125 C-271.59256915 159.60339548 -274.38653817 156.50356051 -277.27294922 153.44799805 C-294.00321909 135.67507101 -307.19162951 115.60728462 -314 92 C-314.18836426 91.351521 -314.37672852 90.70304199 -314.57080078 90.03491211 C-318.74860978 73.87810384 -317.81626152 53.64728764 -312 38 C-311.75330566 37.33226562 -311.50661133 36.66453125 -311.25244141 35.9765625 C-302.55502671 12.99702116 -285.32180856 -5.54179329 -263.06542969 -15.90039062 C-240.87202356 -25.75671034 -216.57795179 -25.7954625 -193.86328125 -17.52734375 C-184.32592566 -13.81412131 -176.82820175 -8.49776382 -169 -2 C-168.01 -1.34 -167.02 -0.68 -166 0 C-166 0.66 -166 1.32 -166 2 C-165.34 2 -164.68 2 -164 2 C-164 2.66 -164 3.32 -164 4 C-163.34 4 -162.68 4 -162 4 C-162 4.66 -162 5.32 -162 6 C-161.34 6 -160.68 6 -160 6 C-158.46310241 8.26458387 -157.05970279 10.51287305 -155.6875 12.875 C-155.28668213 13.55377197 -154.88586426 14.23254395 -154.47290039 14.93188477 C-151.40835958 20.17166082 -148.57476269 25.50113496 -146 31 C-145.01 31 -144.02 31 -143 31 C-141.87247351 28.77208002 -140.74791861 26.54274113 -139.625 24.3125 C-139.14933594 23.37374023 -139.14933594 23.37374023 -138.6640625 22.41601562 C-137.28700443 19.67624383 -135.99783433 16.99396707 -134.9609375 14.10546875 C-134.64382812 13.41066406 -134.32671875 12.71585938 -134 12 C-133.01 11.67 -132.02 11.34 -131 11 C-129.78130071 8.49552484 -129.78130071 8.49552484 -129 6 C-128.34 6 -127.68 6 -127 6 C-127 5.34 -127 4.68 -127 4 C-126.34 4 -125.68 4 -125 4 C-125 3.34 -125 2.68 -125 2 C-124.34 2 -123.68 2 -123 2 C-123 1.34 -123 0.68 -123 0 C-122.34 0 -121.68 0 -121 0 C-121 -0.66 -121 -1.32 -121 -2 C-86.70870683 -33.82284223 -33.66427542 -29.60546208 0 0 Z " fill="#C3A86B" transform="translate(356,88)"/>
<path d="M0 0 C2.50855369 1.96714434 4.95626809 4.00156937 7.40917969 6.03759766 C8.39917969 6.69759766 9.38917969 7.35759766 10.40917969 8.03759766 C10.40917969 8.69759766 10.40917969 9.35759766 10.40917969 10.03759766 C11.06917969 10.03759766 11.72917969 10.03759766 12.40917969 10.03759766 C12.40917969 10.69759766 12.40917969 11.35759766 12.40917969 12.03759766 C13.06917969 12.03759766 13.72917969 12.03759766 14.40917969 12.03759766 C14.40917969 12.69759766 14.40917969 13.35759766 14.40917969 14.03759766 C15.06917969 14.03759766 15.72917969 14.03759766 16.40917969 14.03759766 C17.94607727 16.30218153 19.3494769 18.5504707 20.72167969 20.91259766 C21.12249756 21.59136963 21.52331543 22.2701416 21.9362793 22.96948242 C25.00082011 28.20925847 27.834417 33.53873262 30.40917969 39.03759766 C31.39917969 39.03759766 32.38917969 39.03759766 33.40917969 39.03759766 C34.53670617 36.80967767 35.66126108 34.58033878 36.78417969 32.35009766 C37.25984375 31.41133789 37.25984375 31.41133789 37.74511719 30.45361328 C39.12217526 27.71384149 40.41134535 25.03156473 41.44824219 22.14306641 C41.76535156 21.44826172 42.08246094 20.75345703 42.40917969 20.03759766 C43.39917969 19.70759766 44.38917969 19.37759766 45.40917969 19.03759766 C46.62787897 16.5331225 46.62787897 16.5331225 47.40917969 14.03759766 C48.06917969 14.03759766 48.72917969 14.03759766 49.40917969 14.03759766 C48.12931962 17.55105966 46.6119017 20.33787531 44.40917969 23.35009766 C41.52407619 27.54405299 40.31581518 31.05110247 39.40917969 36.03759766 C40.39917969 36.03759766 41.38917969 36.03759766 42.40917969 36.03759766 C42.40917969 35.37759766 42.40917969 34.71759766 42.40917969 34.03759766 C44.05917969 34.03759766 45.70917969 34.03759766 47.40917969 34.03759766 C45.7661547 35.73362345 44.10193117 37.39165036 42.40917969 39.03759766 C41.68472656 39.74658203 40.96027344 40.45556641 40.21386719 41.18603516 C39.43269531 41.92080078 38.65152344 42.65556641 37.84667969 43.41259766 C37.10289062 44.12158203 36.35910156 44.83056641 35.59277344 45.56103516 C33.40917969 47.03759766 33.40917969 47.03759766 31.26855469 46.89697266 C29.01252491 45.85426982 27.61913416 44.32790189 25.91699219 42.54931641 C13.23814394 29.8376214 -4.137541 22.88298664 -21.90332031 22.60009766 C-39.73992606 22.72505069 -55.22415324 29.01152827 -68.14550781 41.42431641 C-73.9579129 47.63597616 -78.06249779 53.92035166 -80.59082031 62.03759766 C-81.11482422 63.59994141 -81.11482422 63.59994141 -81.64941406 65.19384766 C-82.74984674 69.68690058 -82.89404092 73.74743265 -82.84082031 78.35009766 C-82.83405273 79.19314453 -82.82728516 80.03619141 -82.8203125 80.90478516 C-82.72201393 86.82098747 -82.3014134 92.34562418 -80.59082031 98.03759766 C-80.38070312 98.84326172 -80.17058594 99.64892578 -79.95410156 100.47900391 C-73.76316828 120.74298552 -56.88751189 136.89036446 -42.34082031 151.47509766 C-41.86905365 151.94813324 -41.39728699 152.42116882 -40.91122437 152.90853882 C-35.92068383 157.89756033 -30.87527831 162.75891055 -25.52050781 167.35522461 C-21.24298397 171.08452835 -17.17506282 175.04936158 -13.06347656 178.95947266 C-12.38414062 179.60142578 -11.70480469 180.24337891 -11.00488281 180.90478516 C-10.39596191 181.48341309 -9.78704102 182.06204102 -9.15966797 182.65820312 C-7.62235351 184.12797284 -7.62235351 184.12797284 -5.59082031 185.03759766 C-5.59082031 185.69759766 -5.59082031 186.35759766 -5.59082031 187.03759766 C-5.05199219 187.25544922 -4.51316406 187.47330078 -3.95800781 187.69775391 C-0.77334794 189.50029241 1.66850732 191.95338018 4.28417969 194.47509766 C9.5374361 199.45788788 14.99617487 204.00131775 20.82666016 208.29516602 C24.29063523 210.90695702 26.4956845 213.14841957 28.40917969 217.03759766 C28.74975586 219.90014648 28.74975586 219.90014648 28.70214844 222.99462891 C28.69248047 224.10644531 28.6828125 225.21826172 28.67285156 226.36376953 C28.64771484 227.51425781 28.62257812 228.66474609 28.59667969 229.85009766 C28.58314453 231.01992188 28.56960937 232.18974609 28.55566406 233.39501953 C28.52038247 236.27634966 28.47108248 239.1567367 28.40917969 242.03759766 C24.98149308 241.44996729 23.28327571 240.30600876 20.79980469 237.90478516 C20.12691406 237.26283203 19.45402344 236.62087891 18.76074219 235.95947266 C18.06722656 235.28400391 17.37371094 234.60853516 16.65917969 233.91259766 C15.29068846 232.59614031 13.92089792 231.28103229 12.54980469 229.96728516 C11.86611816 229.31163574 11.18243164 228.65598633 10.47802734 227.98046875 C7.82392965 225.48798475 5.08528536 223.10362448 2.33300781 220.72070312 C-1.2524662 217.58386837 -4.71140831 214.30935256 -8.18457031 211.04931641 C-11.15076279 208.21835 -11.15076279 208.21835 -14.59082031 206.03759766 C-14.59082031 205.37759766 -14.59082031 204.71759766 -14.59082031 204.03759766 C-15.16316406 203.79396484 -15.73550781 203.55033203 -16.32519531 203.29931641 C-18.9951557 201.81242468 -20.72911038 200.05675858 -22.84082031 197.85009766 C-25.68996044 194.93101137 -28.55452877 192.12771211 -31.65332031 189.47509766 C-34.42302491 187.10028163 -37.03091897 184.63741949 -39.59082031 182.03759766 C-42.02982113 179.56100145 -44.49824453 177.21728908 -47.15332031 174.97509766 C-55.93637875 167.41190845 -64.42751463 158.97236056 -71.87207031 150.08447266 C-73.23443502 148.46202014 -74.63983319 146.8757163 -76.05957031 145.30322266 C-93.1594408 126.15820522 -105.82249564 102.86248029 -104.91113281 76.68994141 C-103.70919159 55.69055825 -94.83321033 38.61049882 -79.84082031 24.10009766 C-74.43438118 19.51388501 -68.26230507 16.20912685 -62.03222656 12.88525391 C-58.6030457 11.11445747 -58.6030457 11.11445747 -55.59082031 9.03759766 C-66.89290383 9.43416199 -77.77358771 14.06583235 -86.59082031 21.03759766 C-87.25082031 21.03759766 -87.91082031 21.03759766 -88.59082031 21.03759766 C-88.59082031 21.69759766 -88.59082031 22.35759766 -88.59082031 23.03759766 C-93.06140855 27.03759766 -93.06140855 27.03759766 -95.59082031 27.03759766 C-95.85378906 27.61509766 -96.11675781 28.19259766 -96.38769531 28.78759766 C-97.65416321 31.1560571 -99.11403822 32.98412705 -100.84082031 35.03759766 C-112.90555852 50.43832377 -116.58100652 68.89732311 -114.59082031 88.03759766 C-113.58264133 94.25096739 -111.74212962 100.1351475 -109.59082031 106.03759766 C-109.34976563 106.71628906 -109.10871094 107.39498047 -108.86035156 108.09423828 C-103.67591328 122.28972407 -94.95454377 134.84428548 -84.61474609 145.80932617 C-82.54339001 148.08981676 -80.65790503 150.45906627 -78.75488281 152.88134766 C-73.27995265 159.60482828 -67.21584331 165.67977189 -61.05883789 171.77539062 C-59.12671105 173.68895122 -57.20301589 175.61070572 -55.28027344 177.53369141 C-54.05223363 178.75682557 -52.82373541 179.97949969 -51.59472656 181.20166016 C-50.73386192 182.06085556 -50.73386192 182.06085556 -49.85560608 182.93740845 C-46.99066782 185.84211728 -46.99066782 185.84211728 -43.59082031 188.03759766 C-43.59082031 188.69759766 -43.59082031 189.35759766 -43.59082031 190.03759766 C-42.93082031 190.03759766 -42.27082031 190.03759766 -41.59082031 190.03759766 C-41.59082031 190.69759766 -41.59082031 191.35759766 -41.59082031 192.03759766 C-41.03394531 192.28509766 -40.47707031 192.53259766 -39.90332031 192.78759766 C-37.16671118 194.26684584 -34.91431162 195.97227205 -32.59082031 198.03759766 C-32.59082031 198.69759766 -32.59082031 199.35759766 -32.59082031 200.03759766 C-32.00300781 200.30958984 -31.41519531 200.58158203 -30.80957031 200.86181641 C-26.41237099 203.19202238 -22.73766085 206.59479826 -19.65332031 210.47509766 C-17.3383353 213.35129116 -14.78868789 215.5659079 -11.98925781 217.95947266 C-9.18243441 220.39144342 -6.4466698 222.89625599 -3.71582031 225.41259766 C0.12715658 228.9459019 3.97524506 232.47292058 7.84667969 235.97509766 C8.60851562 236.66474609 9.37035156 237.35439453 10.15527344 238.06494141 C11.78500511 239.49130968 13.47366707 240.85126613 15.19433594 242.16650391 C15.92523438 242.78396484 16.65613281 243.40142578 17.40917969 244.03759766 C17.40917969 244.69759766 17.40917969 245.35759766 17.40917969 246.03759766 C17.96605469 246.30572266 18.52292969 246.57384766 19.09667969 246.85009766 C26.98205212 250.89934296 26.98205212 250.89934296 29.40917969 255.03759766 C29.65795898 258.06201172 29.65795898 258.06201172 29.48339844 261.55322266 C29.4012207 263.42880859 29.4012207 263.42880859 29.31738281 265.34228516 C29.24455078 266.64423828 29.17171875 267.94619141 29.09667969 269.28759766 C29.03544922 270.60501953 28.97421875 271.92244141 28.91113281 273.27978516 C28.75788556 276.53334226 28.59002901 279.78547708 28.40917969 283.03759766 C24.12687159 282.19858479 22.35703237 280.2648274 19.34667969 277.10009766 C16.75264599 274.38903989 14.53586688 272.12205578 11.40917969 270.03759766 C11.40917969 269.37759766 11.40917969 268.71759766 11.40917969 268.03759766 C10.58160156 267.70308594 10.58160156 267.70308594 9.73730469 267.36181641 C6.67861209 265.62205669 4.60179849 263.37995284 2.15917969 260.85009766 C-3.21852376 255.35113315 -8.84157108 250.29459449 -14.77832031 245.41259766 C-17.54779905 243.07392673 -20.13777165 240.70709179 -22.59082031 238.03759766 C-22.59082031 237.37759766 -22.59082031 236.71759766 -22.59082031 236.03759766 C-23.15285156 235.80427734 -23.71488281 235.57095703 -24.29394531 235.33056641 C-27.15816173 233.71822689 -29.06334052 231.71824145 -31.34082031 229.35009766 C-34.33767202 226.28752551 -37.32853633 223.31584357 -40.59082031 220.53759766 C-44.79574875 216.95053626 -48.63105605 213.03042109 -52.48925781 209.07666016 C-54.42178077 206.99633675 -54.42178077 206.99633675 -56.59082031 206.03759766 C-56.59082031 205.37759766 -56.59082031 204.71759766 -56.59082031 204.03759766 C-57.15397949 203.80113525 -57.71713867 203.56467285 -58.29736328 203.32104492 C-61.11988303 201.74152754 -63.02271905 199.81324582 -65.28613281 197.50244141 C-66.60677734 196.16536133 -66.60677734 196.16536133 -67.95410156 194.80126953 C-68.86546875 193.86863281 -69.77683594 192.93599609 -70.71582031 191.97509766 C-72.52871646 190.12787599 -74.3437139 188.28271345 -76.16113281 186.43994141 C-76.96309082 185.62001709 -77.76504883 184.80009277 -78.59130859 183.95532227 C-80.44678392 181.98613426 -80.44678392 181.98613426 -82.59082031 181.03759766 C-82.59082031 180.37759766 -82.59082031 179.71759766 -82.59082031 179.03759766 C-83.25082031 179.03759766 -83.91082031 179.03759766 -84.59082031 179.03759766 C-86.21582031 177.66259766 -86.21582031 177.66259766 -87.59082031 176.03759766 C-87.59082031 175.37759766 -87.59082031 174.71759766 -87.59082031 174.03759766 C-88.25082031 174.03759766 -88.91082031 174.03759766 -89.59082031 174.03759766 C-90.89550781 172.74462891 -90.89550781 172.74462891 -92.46582031 170.85009766 C-95.18338946 167.64099314 -97.97735848 164.54115817 -100.86376953 161.4855957 C-117.59403941 143.71266867 -130.78244983 123.64488227 -137.59082031 100.03759766 C-137.77918457 99.38911865 -137.96754883 98.74063965 -138.16162109 98.07250977 C-142.3394301 81.91570149 -141.40708184 61.68488529 -135.59082031 46.03759766 C-135.34412598 45.36986328 -135.09743164 44.70212891 -134.84326172 44.01416016 C-126.14584702 21.03461882 -108.91262887 2.49580436 -86.65625 -7.86279297 C-59.35151223 -19.98910759 -24.40857981 -18.34273751 0 0 Z " fill="#84B9B6" transform="translate(179.5908203125,79.96240234375)"/>
<path d="M0 0 C24.66246111 -0.96628088 44.89106991 1.99414001 64 19 C65.0110487 19.98882785 66.01584491 20.98440226 67 22 C70.26146363 20.56582961 72.44397442 18.77654738 75 16.3125 C90.94024582 2.03107651 110.4189594 -0.79095086 131.125 0.125 C138.85473282 0.91944476 147.0467638 3.5233819 154 7 C154 7.66 154 8.32 154 9 C154.598125 9.144375 155.19625 9.28875 155.8125 9.4375 C157.56150404 9.8872439 159.28677023 10.42892341 161 11 C161 11.99 161 12.98 161 14 C160.43716309 13.98952637 159.87432617 13.97905273 159.29443359 13.96826172 C138.82774787 13.63875934 120.26975214 15.03738275 102.26953125 25.765625 C100 27 100 27 97.76171875 27.484375 C97.18035156 27.65453125 96.59898437 27.8246875 96 28 C95.505 29.485 95.505 29.485 95 31 C92.71108972 32.37334617 90.54247553 33.15250816 88 34 C88 34.66 88 35.32 88 36 C86.64453125 37.2265625 86.64453125 37.2265625 84.8125 38.625 C81.39467533 41.4352114 79.29246611 44.32647775 77.140625 48.16796875 C75.9502496 50.07990733 74.61939538 51.44590282 73 53 C72.505 53.70125 72.01 54.4025 71.5 55.125 C70 57 70 57 67 58 C65 57 65 57 63.4375 54.0625 C60.47667794 48.68220021 56.19641886 44.43233338 52 40 C51.39800781 39.34515625 50.79601562 38.6903125 50.17578125 38.015625 C44.12839082 31.64401551 37.18809519 27.13586624 29 24 C29 23.34 29 22.68 29 22 C28.27554688 21.87367187 27.55109375 21.74734375 26.8046875 21.6171875 C24.07881426 21.01734353 21.71073881 20.16412868 19.125 19.125 C4.73725024 13.88961695 -8.88191038 13.59599459 -24 14 C-24.33 13.01 -24.66 12.02 -25 11 C-19.25 8 -19.25 8 -17 8 C-17 7.34 -17 6.68 -17 6 C-14.73050898 5.32844651 -12.4596039 4.6626037 -10.1875 4 C-8.92292969 3.62875 -7.65835938 3.2575 -6.35546875 2.875 C-3 2 -3 2 0 2 C0 1.34 0 0.68 0 0 Z " fill="#478C7B" transform="translate(144,43)"/>
<path d="M0 0 C2.49593966 2.22725493 3.69385354 4.22206523 4.9375 7.3125 C6.17811683 10.26135078 7.35523422 12.51762701 9.1875 15.1875 C15.36156252 24.76794185 12.78375237 43.96071379 10.62890625 54.64453125 C9.74816353 57.9432136 8.45802443 60.91571756 7 64 C6.36353309 65.76674434 5.73961855 67.53803678 5.125 69.3125 C3.17257422 74.77626517 0.71159658 79.87686056 -2 85 C-2.66 85 -3.32 85 -4 85 C-2.67423833 80.77018894 -1.0541078 76.8631555 0.875 72.875 C7.18190408 59.38223454 9.27477961 47.77703695 9 33 C9.01804687 32.1028125 9.03609375 31.205625 9.0546875 30.28125 C8.84717981 20.91375983 4.39073696 12.34778685 0.71850586 3.88842773 C0 2 0 2 0 0 Z " fill="#EEE4CB" transform="translate(350,120)"/>
<path d="M0 0 C18.5343704 -0.20243851 18.5343704 -0.20243851 24 1 C24.66 1.99 25.32 2.98 26 4 C23.36 3.67 20.72 3.34 18 3 C22.06585574 7.7919014 26.95208908 10.38636997 32.453125 13.3515625 C35 15 35 15 36 18 C36.556875 18.268125 37.11375 18.53625 37.6875 18.8125 C43.84865953 21.97633868 47.68612473 27.61642646 50 34 C50 34.99 50 35.98 50 37 C46.935084 34.95672267 45.5067802 33.33644187 44 30 C43.34 29.34 42.68 28.68 42 28 C41.71382813 27.37351562 41.42765625 26.74703125 41.1328125 26.1015625 C39.75567976 23.54674383 38.11877525 22.20058058 35.875 20.375 C34.54718539 19.29290197 33.24546176 18.17594761 32 17 C32 16.34 32 15.68 32 15 C31.32066406 14.74992187 30.64132812 14.49984375 29.94140625 14.2421875 C27.12773489 13.05394382 24.50002076 11.6679263 21.83422852 10.18164062 C14.76885226 6.24561946 7.81526133 3.21214101 0 1 C0 0.67 0 0.34 0 0 Z " fill="#F7F2DF" transform="translate(288,87)"/>
<path d="M0 0 C0 0.33 0 0.66 0 1 C0.61818604 1.0093457 1.23637207 1.01869141 1.87329102 1.02832031 C14.47391675 1.26688436 26.00627654 1.92630246 38 6 C38 6.66 38 7.32 38 8 C36.6452138 7.71122471 35.29120698 7.41879283 33.9375 7.125 C32.80634766 6.88136719 32.80634766 6.88136719 31.65234375 6.6328125 C29 6 29 6 25.78125 4.95703125 C9.25822275 0.77506671 -7.38317014 5.00211196 -22 13 C-23.65697379 13.69040574 -25.31923769 14.36971413 -27 15 C-25.92101001 11.96534064 -25.05235437 9.62184576 -22.1953125 7.93359375 C-18.42296082 6.4602413 -15.08954565 5.6166051 -11 6 C-11 5.34 -11 4.68 -11 4 C-10.01 3.67 -9.02 3.34 -8 3 C-8 2.34 -8 1.68 -8 1 C-5.07175348 0.02391783 -3.04386724 -0.08226668 0 0 Z " fill="#E9E0C2" transform="translate(254,99)"/>
<path d="M0 0 C0.66 0 1.32 0 2 0 C0.72013993 3.51346201 -0.79727799 6.30027765 -3 9.3125 C-5.8851035 13.50645534 -7.09336451 17.01350482 -8 22 C-7.01 22 -6.02 22 -5 22 C-5 21.34 -5 20.68 -5 20 C-3.35 20 -1.7 20 0 20 C-1.64302499 21.6960258 -3.30724852 23.35405271 -5 25 C-5.72445312 25.70898438 -6.44890625 26.41796875 -7.1953125 27.1484375 C-7.97648438 27.88320312 -8.75765625 28.61796875 -9.5625 29.375 C-10.30628906 30.08398438 -11.05007812 30.79296875 -11.81640625 31.5234375 C-14 33 -14 33 -16.21484375 32.8515625 C-18 32 -18 32 -19 30 C-18.34 29.67 -17.68 29.34 -17 29 C-17.33 27.68 -17.66 26.36 -18 25 C-16.68 25 -15.36 25 -14 25 C-12.87247351 22.77208002 -11.74791861 20.54274113 -10.625 18.3125 C-10.30789062 17.68666016 -9.99078125 17.06082031 -9.6640625 16.41601562 C-8.28700443 13.67624383 -6.99783433 10.99396707 -5.9609375 8.10546875 C-5.64382812 7.41066406 -5.32671875 6.71585937 -5 6 C-4.01 5.67 -3.02 5.34 -2 5 C-0.78130071 2.49552484 -0.78130071 2.49552484 0 0 Z " fill="#C6B58A" transform="translate(227,94)"/>
<path d="M0 0 C-1.36068398 3.11176271 -2.83162865 4.99852071 -5.40625 7.19921875 C-6.39818359 8.05290039 -6.39818359 8.05290039 -7.41015625 8.92382812 C-8.44462891 9.7968457 -8.44462891 9.7968457 -9.5 10.6875 C-10.53447266 11.57791992 -10.53447266 11.57791992 -11.58984375 12.48632812 C-16.68769317 16.84384658 -16.68769317 16.84384658 -19 18 C-19.45375 18.78375 -19.9075 19.5675 -20.375 20.375 C-22.02202409 23.03557737 -23.354301 24.37844255 -26 26 C-26.66 26 -27.32 26 -28 26 C-28 26.66 -28 27.32 -28 28 C-31.09007389 31.61980085 -33.17965738 33.58682778 -38 34 C-35.32280252 30.56984072 -32.63169907 27.584729 -29.3203125 24.7578125 C-25.07343639 21.08524531 -20.96302314 17.28528286 -16.875 13.4375 C-16.19824219 12.80392578 -15.52148438 12.17035156 -14.82421875 11.51757812 C-11.70324791 8.58676314 -8.64594198 5.63777682 -5.6953125 2.53515625 C-3 0 -3 0 0 0 Z " fill="#BBA872" transform="translate(290,232)"/>
<path d="M0 0 C5.92199574 5.33497576 8.45127817 13.39718373 10 21 C4.16903048 17.89842047 -0.86601899 14.14443819 -6 10 C-5.38125 9.896875 -4.7625 9.79375 -4.125 9.6875 C-1.63473516 9.12474627 -1.63473516 9.12474627 0 6 C0 6.99 0 7.98 0 9 C0.66 9 1.32 9 2 9 C1.67 8.2575 1.34 7.515 1 6.75 C0 4 0 4 0 0 Z " fill="#B0D2CF" transform="translate(201,104)"/>
<path d="M0 0 C0 3 0 3 -1.57429504 4.94851685 C-2.31137192 5.68496429 -3.04844879 6.42141174 -3.80786133 7.18017578 C-5.05464409 8.43630173 -5.05464409 8.43630173 -6.32661438 9.71780396 C-7.23590195 10.61788177 -8.14518951 11.51795959 -9.08203125 12.4453125 C-10.00715012 13.37092987 -10.93226898 14.29654724 -11.88542175 15.25021362 C-13.84544604 17.21014814 -15.81054123 19.16480627 -17.77954102 21.11572266 C-20.30340866 23.6169187 -22.81607158 26.12901869 -25.32524586 28.64494514 C-27.71813245 31.04197713 -30.11903482 33.43090072 -32.51953125 35.8203125 C-33.42274612 36.72443878 -34.325961 37.62856506 -35.25654602 38.56008911 C-36.09719101 39.39120209 -36.937836 40.22231506 -37.80395508 41.07861328 C-38.54341873 41.81346954 -39.28288239 42.54832581 -40.04475403 43.30545044 C-42 45 -42 45 -45 46 C-45 45.34 -45 44.68 -45 44 C-43.52685547 42.56787109 -43.52685547 42.56787109 -41.4921875 40.8984375 C-37.0209246 37.09599527 -33.08630041 32.9472135 -29.125 28.625 C-24.08391234 23.19327026 -18.99864725 17.99616516 -13.39453125 13.13671875 C-8.72642513 8.9712146 -4.38483031 4.45985592 0 0 Z " fill="#F2EAD5" transform="translate(325,231)"/>
<path d="M0 0 C5.0022542 4.08078632 6.07934219 7.69280693 7 14 C4.375 14.75 4.375 14.75 1 15 C-2.375 13.0625 -2.375 13.0625 -5 11 C-4.46884894 6.48521602 -2.63379708 3.65333143 0 0 Z " fill="#7BB3AE" transform="translate(196,99)"/>
<path d="M0 0 C0.66 0 1.32 0 2 0 C1.44313072 5.71591113 0.36248439 10.78244579 -1.5625 16.1875 C-1.82063477 16.91710937 -2.07876953 17.64671875 -2.34472656 18.3984375 C-8.85268844 35.92634422 -8.85268844 35.92634422 -15 39 C-13.69940382 35.45462485 -12.11175336 32.55761559 -10 29.4375 C-6.55542024 23.86736248 -5.64233324 18.44548186 -5 12 C-4.34 12 -3.68 12 -3 12 C-2.67 10.02 -2.34 8.04 -2 6 C-1.34 6 -0.68 6 0 6 C0 4.02 0 2.04 0 0 Z " fill="#E0D2B4" transform="translate(380,176)"/>
<path d="M0 0 C-3 2 -3 2 -4.94140625 1.72265625 C-6.9655641 1.0120885 -8.95259373 0.25111505 -10.9375 -0.5625 C-14.08535833 -1.77457255 -16.58821039 -2.31985528 -20 -2 C-20 -2.66 -20 -3.32 -20 -4 C-33.365 -3.505 -33.365 -3.505 -47 -3 C-33.20248412 -9.89875794 -13.47082103 -6.04402732 0 0 Z " fill="#A9CBC0" transform="translate(295,49)"/>
<path d="M0 0 C2.49593966 2.22725493 3.69385354 4.22206523 4.9375 7.3125 C6.17811683 10.26135078 7.35523422 12.51762701 9.1875 15.1875 C12.97241475 21.06064358 12.12199484 28.1200471 12.0625 34.875 C12.05798828 35.84953125 12.05347656 36.8240625 12.04882812 37.828125 C12.03710906 40.21881434 12.02070219 42.6093744 12 45 C11.67 45 11.34 45 11 45 C10.98582031 43.75605469 10.97164063 42.51210937 10.95703125 41.23046875 C10.75377725 32.66796341 10.55032915 25.32561128 6.41015625 17.63671875 C4.72660216 14.48879906 3.46324464 11.2704283 2.1875 7.9375 C1.76855469 6.85339844 1.34960938 5.76929687 0.91796875 4.65234375 C0 2 0 2 0 0 Z " fill="#BFAD7E" transform="translate(350,120)"/>
<path d="M0 0 C3.465 1.98 3.465 1.98 7 4 C7 4.66 7 5.32 7 6 C7.66 6 8.32 6 9 6 C9.33 6.99 9.66 7.98 10 9 C10.763125 9.020625 11.52625 9.04125 12.3125 9.0625 C15 10 15 10 16.5625 13.1875 C16.78679687 13.81140625 17.01109375 14.4353125 17.2421875 15.078125 C18.40770912 18.03398395 20.17014377 20.41296189 22 23 C21.67 23.66 21.34 24.32 21 25 C19.82750647 23.54634731 18.66216184 22.08692581 17.5 20.625 C16.8503125 19.81289062 16.200625 19.00078125 15.53125 18.1640625 C14 16 14 16 14 14 C13.34 14 12.68 14 12 14 C12 13.34 12 12.68 12 12 C11.45859375 11.75507812 10.9171875 11.51015625 10.359375 11.2578125 C7.44938857 9.70646212 4.9025804 7.83285696 2.25 5.875 C1.26515625 5.15054688 0.2803125 4.42609375 -0.734375 3.6796875 C-1.48203125 3.12539062 -2.2296875 2.57109375 -3 2 C-2.01 1.34 -1.02 0.68 0 0 Z " fill="#E6DBBA" transform="translate(300,108)"/>
<path d="M0 0 C18.5343704 -0.20243851 18.5343704 -0.20243851 24 1 C24.66 1.99 25.32 2.98 26 4 C23.36 3.67 20.72 3.34 18 3 C18.66 4.32 19.32 5.64 20 7 C15.27497299 6.36757331 11.09429803 5.08186437 6.625 3.4375 C5.98433594 3.20353516 5.34367187 2.96957031 4.68359375 2.72851562 C3.1206839 2.15700381 1.56009273 1.57915771 0 1 C0 0.67 0 0.34 0 0 Z " fill="#FBF8EF" transform="translate(288,87)"/>
<path d="M0 0 C4.82326375 2.50438695 7.87866309 4.40923371 11 9 C11.45410156 11.9543457 11.45410156 11.9543457 11.390625 15.17578125 C11.37773437 16.33271484 11.36484375 17.48964844 11.3515625 18.68164062 C11.31804687 19.87982422 11.28453125 21.07800781 11.25 22.3125 C11.23195312 23.53001953 11.21390625 24.74753906 11.1953125 26.00195312 C11.14825131 29.00210422 11.0825131 32.00064889 11 35 C9.0625 34.625 9.0625 34.625 7 34 C6.67 33.34 6.34 32.68 6 32 C6.66 32 7.32 32 8 32 C8.23331804 28.12602311 8.3747313 24.25385576 8.5 20.375 C8.56703125 19.28058594 8.6340625 18.18617188 8.703125 17.05859375 C9.00123537 11.01732042 9.00123537 11.01732042 6.18359375 5.95800781 C4.0170519 4.32584138 4.0170519 4.32584138 1.73242188 3.07275391 C1.16072266 2.71874512 0.58902344 2.36473633 0 2 C0 1.34 0 0.68 0 0 Z " fill="#DBE8E8" transform="translate(197,287)"/>
<path d="M0 0 C0 3 0 3 -1.79296875 5.0859375 C-2.58316406 5.84132812 -3.37335938 6.59671875 -4.1875 7.375 C-5.01121094 8.17292969 -5.83492188 8.97085938 -6.68359375 9.79296875 C-7.44800781 10.52128906 -8.21242188 11.24960938 -9 12 C-11.69684769 14.6355557 -14.2187265 17.24185113 -16.5625 20.1875 C-18.72122523 22.67833681 -19.97388196 23.87921554 -23 25 C-22.71640625 24.43539063 -22.4328125 23.87078125 -22.140625 23.2890625 C-21.38430653 21.7712453 -20.64445205 20.24510473 -19.921875 18.7109375 C-19.53515625 17.94007813 -19.1484375 17.16921875 -18.75 16.375 C-18.37359375 15.59898437 -17.9971875 14.82296875 -17.609375 14.0234375 C-15.44469808 11.30182914 -13.27038946 11.08205478 -10 10 C-7.16815122 7.6487504 -7.16815122 7.6487504 -4.625 4.875 C-3.75101562 3.96492187 -2.87703125 3.05484375 -1.9765625 2.1171875 C-1.32429688 1.41851562 -0.67203125 0.71984375 0 0 Z " fill="#DED1AF" transform="translate(346,238)"/>
<path d="M0 0 C0.99 0.33 1.98 0.66 3 1 C2.34 1.66 1.68 2.32 1 3 C0.68918386 5.35881257 0.68918386 5.35881257 0.734375 8.0859375 C0.73179687 9.09914063 0.72921875 10.11234375 0.7265625 11.15625 C0.73429688 12.2184375 0.74203125 13.280625 0.75 14.375 C0.74226562 15.42945313 0.73453125 16.48390625 0.7265625 17.5703125 C0.72914063 18.58609375 0.73171875 19.601875 0.734375 20.6484375 C0.73663086 21.57833496 0.73888672 22.50823242 0.74121094 23.46630859 C1.00977302 26.09568339 1.66602001 27.74071214 3 30 C2.34 30 1.68 30 1 30 C1 30.66 1 31.32 1 32 C0.01 32 -0.98 32 -2 32 C-2.05802751 27.41671978 -2.09360593 22.83353396 -2.125 18.25 C-2.14175781 16.94804687 -2.15851563 15.64609375 -2.17578125 14.3046875 C-2.18222656 13.05429687 -2.18867188 11.80390625 -2.1953125 10.515625 C-2.20578613 9.36352539 -2.21625977 8.21142578 -2.22705078 7.02441406 C-2.00758762 4.10107034 -1.52728122 2.46267491 0 0 Z " fill="#E7DFC8" transform="translate(218,331)"/>
<path d="M0 0 C0.66 0.33 1.32 0.66 2 1 C0.10600285 2.75202288 -1.79011738 4.50164978 -3.6875 6.25 C-4.21794922 6.74113281 -4.74839844 7.23226563 -5.29492188 7.73828125 C-5.82021484 8.22167969 -6.34550781 8.70507812 -6.88671875 9.203125 C-7.4077417 9.69329102 -7.92876465 10.18345703 -8.46557617 10.68847656 C-10 12 -10 12 -12.84375 13.5625 C-16.608252 17.818024 -15.78511363 23.27881134 -15.8125 28.75 C-15.83763672 29.92433594 -15.86277344 31.09867187 -15.88867188 32.30859375 C-15.94756358 35.20606565 -15.98382969 38.10202605 -16 41 C-15.34 41.33 -14.68 41.66 -14 42 C-15.485 42.495 -15.485 42.495 -17 43 C-17.22400504 38.99892538 -17.38645348 35.00031431 -17.49438477 30.99438477 C-17.53940132 29.63501379 -17.60064542 28.2760728 -17.67895508 26.91821289 C-18.31248975 15.64295197 -18.31248975 15.64295197 -15.11694336 11.64282227 C-12.82604694 9.87130597 -10.51938433 8.42160041 -8 7 C-6.46368285 5.70565851 -4.93744843 4.39881769 -3.4375 3.0625 C-2.77621094 2.47597656 -2.11492187 1.88945312 -1.43359375 1.28515625 C-0.96050781 0.86105469 -0.48742187 0.43695313 0 0 Z " fill="#E5DBC2" transform="translate(234,279)"/>
<path d="M0 0 C0 3 0 3 -2.125 5.25 C-3.07375 6.1575 -4.0225 7.065 -5 8 C-5.96905704 9.13677845 -6.92701088 10.2830939 -7.875 11.4375 C-10.48447637 14.53920317 -13.33496418 17.07627563 -16.4609375 19.64453125 C-18.26977195 21.23759104 -19.5825559 23.06033965 -21 25 C-21.66 25 -22.32 25 -23 25 C-23 25.66 -23 26.32 -23 27 C-24.32 27.33 -25.64 27.66 -27 28 C-21.75541414 21.63409696 -15.97902678 15.86429388 -10.125 10.0625 C-9.14039081 9.08291763 -8.156014 8.10310163 -7.171875 7.12304688 C-4.78351797 4.74639748 -2.39284788 2.37212644 0 0 Z " fill="#F5EED9" transform="translate(315,229)"/>
<path d="M0 0 C5.61 0 11.22 0 17 0 C14.2060132 1.86265786 12.60289723 2.45738047 9.4375 3.25 C4.49298765 4.65239093 0.58850635 6.86185198 -3.67578125 9.6953125 C-6.14288758 11.08020916 -8.21513471 11.59582486 -11 12 C-8.04732794 8.76612108 -5.12077252 6.77754751 -1.25 4.75 C-0.26515625 4.22921875 0.7196875 3.7084375 1.734375 3.171875 C2.48203125 2.78515625 3.2296875 2.3984375 4 2 C2.68 1.34 1.36 0.68 0 0 Z " fill="#E3F7F6" transform="translate(120,87)"/>
<path d="M0 0 C2.71224618 1.61268692 5.37352812 3.24901874 8 5 C8 5.66 8 6.32 8 7 C8.66 7 9.32 7 10 7 C10 7.66 10 8.32 10 9 C10.66 9 11.32 9 12 9 C12 9.66 12 10.32 12 11 C12.66 11 13.32 11 14 11 C15.32421875 12.6796875 15.32421875 12.6796875 16.6875 14.875 C17.14511719 15.59429687 17.60273438 16.31359375 18.07421875 17.0546875 C18.37972656 17.69664063 18.68523437 18.33859375 19 19 C18.67 19.66 18.34 20.32 18 21 C17.38125 20.360625 16.7625 19.72125 16.125 19.0625 C14.17402388 16.96116416 14.17402388 16.96116416 12 16 C12 15.34 12 14.68 12 14 C11.34 14 10.68 14 10 14 C10 13.01 10 12.02 10 11 C8.68 10.34 7.36 9.68 6 9 C6 8.34 6 7.68 6 7 C5.34 7 4.68 7 4 7 C4 6.34 4 5.68 4 5 C3.34 5 2.68 5 2 5 C2 4.01 2 3.02 2 2 C1.34 2 0.68 2 0 2 C0 1.34 0 0.68 0 0 Z " fill="#B5D4CF" transform="translate(182,83)"/>
<path d="M0 0 C0.33 0.66 0.66 1.32 1 2 C0.34 2 -0.32 2 -1 2 C-3.20949832 6.41029783 -3.2370648 10.48940324 -3.125 15.3125 C-3.11597656 16.05306641 -3.10695312 16.79363281 -3.09765625 17.55664062 C-3.07424213 19.37123467 -3.03837615 21.18566071 -3 23 C-1.68 23.33 -0.36 23.66 1 24 C-0.36983503 27.16115776 -0.9890638 27.9927092 -4 30 C-5.57423502 25.27729494 -5.30843289 20.50964691 -5.375 15.5625 C-5.41238281 14.51255859 -5.44976562 13.46261719 -5.48828125 12.38085938 C-5.57728318 4.62285816 -5.57728318 4.62285816 -2.4765625 1.27734375 C-1.65929687 0.85582031 -0.84203125 0.43429687 0 0 Z " fill="#B7A16E" transform="translate(223,330)"/>
<path d="M0 0 C0 4.10202215 -1.4911355 5.81306402 -4 9 C-4.72574219 9.24492187 -5.45148438 9.48984375 -6.19921875 9.7421875 C-10.37208015 11.6161922 -13.0099933 14.77370871 -16.125 18.0625 C-17.35208493 19.34953606 -18.58367423 20.6322967 -19.8203125 21.91015625 C-20.62879639 22.76299194 -20.62879639 22.76299194 -21.45361328 23.63305664 C-23 25 -23 25 -26 26 C-26 25.34 -26 24.68 -26 24 C-24.56640625 22.58984375 -24.56640625 22.58984375 -22.5625 20.9375 C-19.39242783 18.24825006 -16.41418475 15.46486623 -13.5 12.5 C-9.50448466 8.44899139 -5.31770169 4.70088717 -1 1 C-0.67 0.67 -0.34 0.34 0 0 Z " fill="#EFE6CD" transform="translate(295,223)"/>
<path d="M0 0 C1.32 0.33 2.64 0.66 4 1 C1.25303555 3.82141311 -1.50390843 6.6326518 -4.27026367 9.43505859 C-5.66922485 10.85643207 -7.06025836 12.28559411 -8.45117188 13.71484375 C-9.78051758 15.05869141 -9.78051758 15.05869141 -11.13671875 16.4296875 C-11.94842529 17.25710449 -12.76013184 18.08452148 -13.59643555 18.93701172 C-16.01004507 21.00862172 -17.99565916 22.02271247 -21 23 C-17.29514661 18.4615546 -13.48689519 14.56937778 -9.03515625 10.76953125 C-6.96054213 8.9656921 -4.9675644 7.10736587 -3 5.1875 C-2.13375 4.34251953 -2.13375 4.34251953 -1.25 3.48046875 C0.21504284 2.06824171 0.21504284 2.06824171 0 0 Z " fill="#EEEAD5" transform="translate(276,265)"/>
<path d="M0 0 C2.64 0.33 5.28 0.66 8 1 C8 1.99 8 2.98 8 4 C9.32 3.34 10.64 2.68 12 2 C12.99 2.66 13.98 3.32 15 4 C15 4.99 15 5.98 15 7 C16.65 7 18.3 7 20 7 C20 8.32 20 9.64 20 11 C15.50202887 9.31326082 11.27113698 7.18326108 7 5 C7 4.34 7 3.68 7 3 C5.824375 2.814375 5.824375 2.814375 4.625 2.625 C2 2 2 2 0 0 Z " fill="#81ADA1" transform="translate(166,62)"/>
<path d="M0 0 C1.32 0 2.64 0 4 0 C2.63854309 3.90376931 0.87415934 6.69142685 -1.75 9.875 C-2.80960937 11.16664063 -2.80960937 11.16664063 -3.890625 12.484375 C-6.56914624 15.67875959 -9.26451664 18.85419413 -12 22 C-12 18.10480289 -10.77282019 17.27532248 -8.25 14.375 C-4.49970574 9.85336862 -2.0183648 5.49738833 0 0 Z " fill="#EEE3CF" transform="translate(361,215)"/>
<path d="M0 0 C0.33 0.66 0.66 1.32 1 2 C-3.05104445 10.52919582 -8.2968662 19.6484331 -17 24 C-15.43717115 20.43375756 -13.26136163 17.77231907 -10.75 14.8125 C-6.80698941 10.07324333 -3.28306229 5.21427541 0 0 Z " fill="#F6F2DC" transform="translate(335,203)"/>
<path d="M0 0 C5.47345761 4.35642544 10.26049598 9.03270636 14 15 C14 15.99 14 16.98 14 18 C12.8553125 17.0409375 12.8553125 17.0409375 11.6875 16.0625 C9.11753287 13.85767219 9.11753287 13.85767219 6 13 C4.90234375 11.07421875 4.90234375 11.07421875 3.9375 8.6875 C2.71993785 5.72916626 1.46497871 2.84531421 0 0 Z " fill="#B6D5D1" transform="translate(87,218)"/>
<path d="M0 0 C2.81193478 3.74924637 3.64196768 5.55068979 4.6875 9.9375 C4.93886719 10.95714844 5.19023437 11.97679687 5.44921875 13.02734375 C5.95770635 15.77173428 6.10755868 18.21883996 6 21 C5.34 21 4.68 21 4 21 C4 20.01 4 19.02 4 18 C3.34 18 2.68 18 2 18 C1.34 12.06 0.68 6.12 0 0 Z " fill="#DBCFAD" transform="translate(377,121)"/>
<path d="M0 0 C0.66 0.33 1.32 0.66 2 1 C2 1.66 2 2.32 2 3 C2.8971875 3.2165625 2.8971875 3.2165625 3.8125 3.4375 C5.56150404 3.8872439 7.28677023 4.42892341 9 5 C9 5.99 9 6.98 9 8 C2.07 7.67 -4.86 7.34 -12 7 C-12 6.67 -12 6.34 -12 6 C-7.71 6 -3.42 6 1 6 C0.34 4.35 -0.32 2.7 -1 1 C-0.67 0.67 -0.34 0.34 0 0 Z " fill="#9DC2B9" transform="translate(296,49)"/>
<path d="M0 0 C2.57385803 0.3550149 3.77749905 0.77646726 5.63208008 2.63964844 C7.45845597 5.7910677 7.25529824 7.89403514 7.07421875 11.515625 C6.99204102 13.39121094 6.99204102 13.39121094 6.90820312 15.3046875 C6.83537109 16.60664063 6.76253906 17.90859375 6.6875 19.25 C6.62626953 20.56742187 6.56503906 21.88484375 6.50195312 23.2421875 C6.34870587 26.4957446 6.18084932 29.74787942 6 33 C5.01 32.67 4.02 32.34 3 32 C3.66 32 4.32 32 5 32 C4.9480993 27.60320529 4.85301073 23.2083709 4.75 18.8125 C4.73582031 17.56662109 4.72164062 16.32074219 4.70703125 15.03710938 C4.67480469 13.83505859 4.64257812 12.63300781 4.609375 11.39453125 C4.58842773 10.28956299 4.56748047 9.18459473 4.54589844 8.04614258 C3.89183999 4.39646135 2.50161664 2.67812443 0 0 Z " fill="#F3FBFB" transform="translate(202,330)"/>
<path d="M0 0 C0.33 0 0.66 0 1 0 C1 8.91 1 17.82 1 27 C-3.59037956 25.85240511 -4.33669182 24.70960782 -7 21 C-5.02 21.33 -3.04 21.66 -1 22 C-0.67 14.74 -0.34 7.48 0 0 Z " fill="#B1CCCC" transform="translate(206,335)"/>
<path d="M0 0 C1.0625 1.8125 1.0625 1.8125 2 4 C1.67 4.99 1.34 5.98 1 7 C-0.5778125 6.5978125 -0.5778125 6.5978125 -2.1875 6.1875 C-6.14583333 5.5625 -6.14583333 5.5625 -8.9375 8.4375 C-9.618125 9.283125 -10.29875 10.12875 -11 11 C-11.66 10.67 -12.32 10.34 -13 10 C-3.24657534 0 -3.24657534 0 0 0 Z M-5 6 C-3 7 -3 7 -3 7 Z " fill="#75AD9F" transform="translate(226,55)"/>
<path d="M0 0 C7.36287126 4.04236069 12.68363575 8.49613171 18 15 C17.67 15.66 17.34 16.32 17 17 C14.0625 15.75 14.0625 15.75 11 14 C10.4375 12.125 10.4375 12.125 10 10 C7.57156077 7.23427755 5.34694795 5.20816877 2.1875 3.3125 C1.465625 2.879375 0.74375 2.44625 0 2 C0 1.34 0 0.68 0 0 Z " fill="#E1D4B4" transform="translate(344,80)"/>
<path d="M0 0 C1.60495567 0.11442461 3.20898119 0.24194694 4.8125 0.375 C5.70582031 0.44460937 6.59914063 0.51421875 7.51953125 0.5859375 C10 1 10 1 13 3 C12.67 4.32 12.34 5.64 12 7 C9.99538701 6.34733531 7.99620166 5.67795528 6 5 C4.6078125 4.5359375 4.6078125 4.5359375 3.1875 4.0625 C2.465625 3.711875 1.74375 3.36125 1 3 C0.67 2.01 0.34 1.02 0 0 Z " fill="#C0A974" transform="translate(313,89)"/>
<path d="M0 0 C-3 2 -3 2 -5 2 C-5 2.66 -5 3.32 -5 4 C-10.445 6.475 -10.445 6.475 -16 9 C-16 8.34 -16 7.68 -16 7 C-15.34 7 -14.68 7 -14 7 C-14 6.34 -14 5.68 -14 5 C-13.34 5 -12.68 5 -12 5 C-12 4.34 -12 3.68 -12 3 C-11.34 3 -10.68 3 -10 3 C-10 2.34 -10 1.68 -10 1 C-6.1496895 -1.56687367 -4.41430237 -0.83288724 0 0 Z " fill="#DCCEAA" transform="translate(245,85)"/>
<path d="M0 0 C0.66 0.33 1.32 0.66 2 1 C0.625 2.5 0.625 2.5 -1 4 C-1.66 4 -2.32 4 -3 4 C-2.979375 4.7425 -2.95875 5.485 -2.9375 6.25 C-4 9 -4 9 -6.0703125 10.22265625 C-8.3588977 11.22346389 -10.65126015 12.15065771 -13 13 C-11.30343574 9.26127505 -9.38732271 7.3711259 -6 5 C-5.34 5 -4.68 5 -4 5 C-4 4.34 -4 3.68 -4 3 C-2 1.375 -2 1.375 0 0 Z " fill="#DACDAA" transform="translate(253,300)"/>
<path d="M0 0 C0.99 0.33 1.98 0.66 3 1 C2.13375 1.99 1.2675 2.98 0.375 4 C-2.94197541 7.86190708 -5.99283262 11.89447006 -9 16 C-9.33 15.34 -9.66 14.68 -10 14 C-9.525625 13.443125 -9.05125 12.88625 -8.5625 12.3125 C-6.82984662 10.12200259 -6.82984662 10.12200259 -6.6875 7.5625 C-5.61545307 3.56668872 -3.38744987 2.30346591 0 0 Z " fill="#AED1CF" transform="translate(113,115)"/>
<path d="M0 0 C0 4.10701175 -1.67861263 6.62355483 -4.5 9.5625 C-4.995 10.036875 -5.49 10.51125 -6 11 C-6.495 11.70125 -6.99 12.4025 -7.5 13.125 C-9 15 -9 15 -12 16 C-12.66 15.67 -13.32 15.34 -14 15 C-14 14.01 -14 13.02 -14 12 C-12.7315625 11.7834375 -12.7315625 11.7834375 -11.4375 11.5625 C-6.42849639 9.28568018 -4.12498429 5.39908257 -1 1 C-0.67 0.67 -0.34 0.34 0 0 Z " fill="#DBEDEA" transform="translate(223,85)"/>
<path d="M0 0 C5.94 0 11.88 0 18 0 C18.33 0.66 18.66 1.32 19 2 C19.66 2.144375 20.32 2.28875 21 2.4375 C21.66 2.623125 22.32 2.80875 23 3 C23.33 3.99 23.66 4.98 24 6 C22.85402344 5.72285156 21.70804688 5.44570313 20.52734375 5.16015625 C18.9974356 4.79410461 17.46748543 4.42822853 15.9375 4.0625 C15.18533203 3.88009766 14.43316406 3.69769531 13.65820312 3.50976562 C9.11620899 2.42833845 4.63270877 1.58447189 0 1 C0 0.67 0 0.34 0 0 Z " fill="#96BFB4" transform="translate(142,56)"/>
<path d="M0 0 C0 3 0 3 -1 5 C-1.15004973 6.3734635 -1.24838006 7.7528526 -1.31640625 9.1328125 C-1.37924805 10.34130859 -1.37924805 10.34130859 -1.44335938 11.57421875 C-1.48267578 12.41597656 -1.52199219 13.25773437 -1.5625 14.125 C-1.60568359 14.97449219 -1.64886719 15.82398438 -1.69335938 16.69921875 C-1.79954236 18.79928223 -1.90028497 20.89961948 -2 23 C-1.34 23 -0.68 23 0 23 C-0.33 24.65 -0.66 26.3 -1 28 C-1.66 28 -2.32 28 -3 28 C-3.08694042 23.89596637 -3.14037149 19.79216871 -3.1875 15.6875 C-3.21263672 14.52025391 -3.23777344 13.35300781 -3.26367188 12.15039062 C-3.27817383 10.47299805 -3.27817383 10.47299805 -3.29296875 8.76171875 C-3.3086792 7.73006592 -3.32438965 6.69841309 -3.34057617 5.63549805 C-3 3 -3 3 -1.48168945 1.13989258 C-0.74825317 0.57564575 -0.74825317 0.57564575 0 0 Z " fill="#B9A675" transform="translate(221,292)"/>
<path d="M0 0 C4.91234701 4.40851655 7.39374399 11.72099922 9 18 C8.54296875 20.16796875 8.54296875 20.16796875 8 22 C6.66108439 18.71057634 5.32982297 15.41810891 4 12.125 C3.6184375 11.18785156 3.236875 10.25070313 2.84375 9.28515625 C2.4828125 8.38925781 2.121875 7.49335937 1.75 6.5703125 C1.41484375 5.74289551 1.0796875 4.91547852 0.734375 4.06298828 C0 2 0 2 0 0 Z " fill="#F5EED8" transform="translate(350,120)"/>
<path d="M0 0 C1.98 0 3.96 0 6 0 C6 0.66 6 1.32 6 2 C5.34 2 4.68 2 4 2 C4 2.66 4 3.32 4 4 C2.04072937 5.7143618 0.04119788 7.38405168 -2 9 C-2.66 8.67 -3.32 8.34 -4 8 C-3.67 6.35 -3.34 4.7 -3 3 C-2.34 3 -1.68 3 -1 3 C-0.67 2.01 -0.34 1.02 0 0 Z " fill="#D6C8A4" transform="translate(236,300)"/>
<path d="M0 0 C0.33 0.99 0.66 1.98 1 3 C0.67 3.66 0.34 4.32 0 5 C-0.66 5 -1.32 5 -2 5 C-2 6.65 -2 8.3 -2 10 C-3.32 10.33 -4.64 10.66 -6 11 C-6.12375 11.804375 -6.2475 12.60875 -6.375 13.4375 C-6.58125 14.283125 -6.7875 15.12875 -7 16 C-7.66 16.33 -8.32 16.66 -9 17 C-8.43310319 12.6852854 -6.88294703 9.86348525 -4.5 6.25 C-3.55640625 4.80367188 -3.55640625 4.80367188 -2.59375 3.328125 C-1 1 -1 1 0 0 Z " fill="#B9D7D3" transform="translate(89,117)"/>
<path d="M0 0 C2.015625 0.05859375 2.015625 0.05859375 4 1 C5.046875 3.28515625 5.046875 3.28515625 5.75 6.0625 C5.99234375 6.98160156 6.2346875 7.90070313 6.484375 8.84765625 C6.65453125 9.55792969 6.8246875 10.26820312 7 11 C3.78034336 9.63783758 2.18312565 8.27468847 0.25 5.375 C-0.17796875 4.74335937 -0.6059375 4.11171875 -1.046875 3.4609375 C-1.36140625 2.97882813 -1.6759375 2.49671875 -2 2 C-1.34 1.34 -0.68 0.68 0 0 Z " fill="#94BAB6" transform="translate(204,114)"/>
<path d="M0 0 C0.66 1.32 1.32 2.64 2 4 C-2.29 4.66 -6.58 5.32 -11 6 C-11 5.34 -11 4.68 -11 4 C-10.01 3.67 -9.02 3.34 -8 3 C-8 2.34 -8 1.68 -8 1 C-5.07175348 0.02391783 -3.04386724 -0.08226668 0 0 Z " fill="#CFBC91" transform="translate(254,99)"/>
<path d="M0 0 C0 0.33 0 0.66 0 1 C-0.89460938 1.10957031 -1.78921875 1.21914063 -2.7109375 1.33203125 C-9.38928356 2.2077632 -15.65396086 3.25711889 -22.01171875 5.51171875 C-24 6 -24 6 -27 5 C-26.67 4.34 -26.34 3.68 -26 3 C-23.50589072 2.345709 -21.09507461 1.82174022 -18.5625 1.375 C-17.4806543 1.17716919 -17.4806543 1.17716919 -16.37695312 0.9753418 C-10.88789697 0.02677501 -5.57174366 -0.36162759 0 0 Z " fill="#C3DBD4" transform="translate(284,56)"/>
<path d="M0 0 C0.66 0 1.32 0 2 0 C0.36887082 4.46787558 -1.92559515 7.95860245 -4.66015625 11.81640625 C-5.9533192 13.92392254 -6.55651688 15.58548082 -7 18 C-7.66 18 -8.32 18 -9 18 C-8.60350587 16.20376144 -8.18206548 14.41301565 -7.75 12.625 C-7.51796875 11.62726563 -7.2859375 10.62953125 -7.046875 9.6015625 C-6 7 -6 7 -3.96875 5.8125 C-3.3190625 5.544375 -2.669375 5.27625 -2 5 C-0.71745356 2.46229997 -0.71745356 2.46229997 0 0 Z " fill="#F8F2E1" transform="translate(227,94)"/>
<path d="M0 0 C18.5343704 -0.20243851 18.5343704 -0.20243851 24 1 C24.66 1.99 25.32 2.98 26 4 C25.35675781 3.855625 24.71351563 3.71125 24.05078125 3.5625 C17.47116798 2.2109104 11.36380731 1.86962921 4.65234375 2.125 C2 2 2 2 0 0 Z " fill="#EEE4C4" transform="translate(288,87)"/>
<path d="M0 0 C0.75 1.5625 0.75 1.5625 1 4 C-0.13084437 6.50286409 -1.52139516 8.67007722 -3 11 C-3.99 11 -4.98 11 -6 11 C-6 11.66 -6 12.32 -6 13 C-6.66 13 -7.32 13 -8 13 C-6.62408154 8.9869045 -4.72281449 6.2333422 -2 3 C-1.34 2.01 -0.68 1.02 0 0 Z " fill="#DACCAB" transform="translate(345,205)"/>
<path d="M0 0 C1 3 1 3 -0.6875 6.4375 C-2.4738303 9.36732894 -4.43863736 11.69477363 -7 14 C-7.66 14.66 -8.32 15.32 -9 16 C-8.67 13.69 -8.34 11.38 -8 9 C-7.01 8.67 -6.02 8.34 -5 8 C-5 7.34 -5 6.68 -5 6 C-4.01 6 -3.02 6 -2 6 C-1.34 4.02 -0.68 2.04 0 0 Z " fill="#D5C4A1" transform="translate(340,193)"/>
<path d="M0 0 C0 3.67846871 -1.11821535 4.86369225 -3 8 C-4.08966242 10.64071344 -5.04153044 13.30715695 -6 16 C-7.65 15.67 -9.3 15.34 -11 15 C-10.21625 14.113125 -9.4325 13.22625 -8.625 12.3125 C-6.39882353 9.66228991 -5.27157645 7.22132701 -4 4 C-1.875 1.6875 -1.875 1.6875 0 0 Z " fill="#CFBD90" transform="translate(331,224)"/>
<path d="M0 0 C0.99 0.66 1.98 1.32 3 2 C2.76410156 2.58265625 2.52820313 3.1653125 2.28515625 3.765625 C1.72494493 6.09547647 1.72494493 6.09547647 3.43359375 7.921875 C4.42552734 8.82679687 4.42552734 8.82679687 5.4375 9.75 C6.09621094 10.36359375 6.75492188 10.9771875 7.43359375 11.609375 C7.95050781 12.06828125 8.46742188 12.5271875 9 13 C8.67 13.66 8.34 14.32 8 15 C4.04 11.04 0.08 7.08 -4 3 C-3.01 2.67 -2.02 2.34 -1 2 C-0.67 1.34 -0.34 0.68 0 0 Z " fill="#9CC3BA" transform="translate(193,73)"/>
<path d="M0 0 C0.48210937 0.42152344 0.96421875 0.84304688 1.4609375 1.27734375 C2.09257812 1.82519531 2.72421875 2.37304688 3.375 2.9375 C4.00148437 3.48277344 4.62796875 4.02804687 5.2734375 4.58984375 C6.95632334 6.06958624 6.95632334 6.06958624 9 7 C9 7.66 9 8.32 9 9 C9.66 9 10.32 9 11 9 C11 9.66 11 10.32 11 11 C9.68 11 8.36 11 7 11 C7 10.01 7 9.02 7 8 C5.35 7.67 3.7 7.34 2 7 C1.34 4.69 0.68 2.38 0 0 Z " fill="#A6C9C4" transform="translate(127,261)"/>
<path d="M0 0 C0.33 0.99 0.66 1.98 1 3 C0.67 3.66 0.34 4.32 0 5 C0.66 5.33 1.32 5.66 2 6 C0.75 7.5625 0.75 7.5625 -1 9 C-3.125 8.8125 -3.125 8.8125 -5 8 C-5.33 7.34 -5.66 6.68 -6 6 C-5.34 5.67 -4.68 5.34 -4 5 C-4.33 3.68 -4.66 2.36 -5 1 C-3.68 1 -2.36 1 -1 1 C-0.67 0.67 -0.34 0.34 0 0 Z " fill="#EDF0E9" transform="translate(214,118)"/>
<path d="M0 0 C5.08938811 1.59043379 8.87456643 4.7446951 13 8 C9.61122044 8 7.19809616 7.06603205 4 6 C3.01 6 2.02 6 1 6 C0.67 4.02 0.34 2.04 0 0 Z " fill="#8DB6AD" transform="translate(194,53)"/>
<path d="M0 0 C-2.90600261 1.25664978 -4.79604584 2 -8 2 C-8 2.66 -8 3.32 -8 4 C-10.31 4 -12.62 4 -15 4 C-15.33 4.99 -15.66 5.98 -16 7 C-17.32 6.67 -18.64 6.34 -20 6 C-19.01 5.67 -18.02 5.34 -17 5 C-17 4.34 -17 3.68 -17 3 C-14.73194205 2.30190555 -12.46133393 1.61628983 -10.1875 0.9375 C-9.54490234 0.73833984 -8.90230469 0.53917969 -8.24023438 0.33398438 C-3.33984375 -1.11328125 -3.33984375 -1.11328125 0 0 Z " fill="#A9C9C1" transform="translate(144,46)"/>
<path d="M0 0 C1.72526042 1.07421875 3.45052083 2.1484375 5.17578125 3.22265625 C5.17578125 3.88265625 5.17578125 4.54265625 5.17578125 5.22265625 C5.83578125 5.22265625 6.49578125 5.22265625 7.17578125 5.22265625 C6.84578125 5.88265625 6.51578125 6.54265625 6.17578125 7.22265625 C1.57305963 5.45237871 -1.53714305 4.03566407 -4.82421875 0.22265625 C-1.82421875 -0.77734375 -1.82421875 -0.77734375 0 0 Z " fill="#D8CBA7" transform="translate(301.82421875,108.77734375)"/>
<path d="M0 0 C0.99 0.33 1.98 0.66 3 1 C1.7934375 1.61875 1.7934375 1.61875 0.5625 2.25 C-2.17125741 3.68720448 -2.17125741 3.68720448 -2.4375 6 C-3 8 -3 8 -5.9375 9.8125 C-6.948125 10.204375 -7.95875 10.59625 -9 11 C-9.66 10.67 -10.32 10.34 -11 10 C-9.73232923 8.70522938 -8.46073776 7.41429661 -7.1875 6.125 C-6.47980469 5.40570313 -5.77210937 4.68640625 -5.04296875 3.9453125 C-3 2 -3 2 0 0 Z " fill="#7FB0AB" transform="translate(105,102)"/>
<path d="M0 0 C2.13671875 0.39453125 2.13671875 0.39453125 4 1 C3.06409496 2.1055189 2.12620142 3.20935453 1.1875 4.3125 C0.66542969 4.92738281 0.14335937 5.54226563 -0.39453125 6.17578125 C-1.87172469 7.85424679 -3.40039131 9.43882034 -5 11 C-5.66 10.67 -6.32 10.34 -7 10 C-6.34 9.34 -5.68 8.68 -5 8 C-4.87625 7.38125 -4.7525 6.7625 -4.625 6.125 C-3.75937832 3.18188628 -2.40789993 1.8575228 0 0 Z " fill="#D2C69D" transform="translate(228,348)"/>
<path d="M0 0 C1.65 0 3.3 0 5 0 C4.01 1.485 4.01 1.485 3 3 C2.34 3 1.68 3 1 3 C1 3.66 1 4.32 1 5 C-0.53125 6.2890625 -0.53125 6.2890625 -2.5 7.625 C-3.1496875 8.07101562 -3.799375 8.51703125 -4.46875 8.9765625 C-4.9740625 9.31429688 -5.479375 9.65203125 -6 10 C-5.34 8.02 -4.68 6.04 -4 4 C-3.01 4 -2.02 4 -1 4 C-0.67 2.68 -0.34 1.36 0 0 Z " fill="#D1C29F" transform="translate(226,310)"/>
<path d="M0 0 C4.95 1.65 9.9 3.3 15 5 C12 7 12 7 10.078125 6.72265625 C7.95752796 5.98523059 5.84652136 5.24116652 3.75 4.4375 C3.04359375 4.16808594 2.3371875 3.89867187 1.609375 3.62109375 C1.07828125 3.41613281 0.5471875 3.21117187 0 3 C0 2.01 0 1.02 0 0 Z " fill="#8CB3A8" transform="translate(280,44)"/>
<path d="M0 0 C1.875 0.125 1.875 0.125 4 1 C5.125 4 5.125 4 6 7 C6.66 7.33 7.32 7.66 8 8 C9.6875 10.9375 9.6875 10.9375 11 14 C10.67 14.66 10.34 15.32 10 16 C8.70161824 14.2758698 7.41156253 12.54546768 6.125 10.8125 C5.04605469 9.36810547 5.04605469 9.36810547 3.9453125 7.89453125 C2.19403401 5.28871325 1.02540206 2.95207856 0 0 Z " fill="#BCD8D7" transform="translate(55,209)"/>
<path d="M0 0 C0.66 0.33 1.32 0.66 2 1 C3.3734635 1.15004973 4.7528526 1.24838006 6.1328125 1.31640625 C6.93847656 1.35830078 7.74414062 1.40019531 8.57421875 1.44335938 C9.41597656 1.48267578 10.25773438 1.52199219 11.125 1.5625 C12.39923828 1.62727539 12.39923828 1.62727539 13.69921875 1.69335938 C15.79928223 1.79954236 17.89961948 1.90028497 20 2 C20 2.33 20 2.66 20 3 C9.11 3.495 9.11 3.495 -2 4 C-2.33 3.01 -2.66 2.02 -3 1 C-2.01 0.67 -1.02 0.34 0 0 Z " fill="#B7D7CE" transform="translate(122,53)"/>
<path d="M0 0 C2.97 0.495 2.97 0.495 6 1 C2.79239749 4.80635497 -0.40746109 8.54563567 -4 12 C-4.66 11.67 -5.32 11.34 -6 11 C-5.566875 10.62488281 -5.13375 10.24976563 -4.6875 9.86328125 C-1.01436376 6.64255667 -1.01436376 6.64255667 0.375 2.125 C0.25125 1.42375 0.1275 0.7225 0 0 Z " fill="#E2D7B9" transform="translate(271,306)"/>
<path d="M0 0 C0 3.20395416 -0.74335022 5.09399739 -2 8 C-2.66 8 -3.32 8 -4 8 C-4.0825 8.61875 -4.165 9.2375 -4.25 9.875 C-5 12 -5 12 -7.0625 13.25 C-7.701875 13.4975 -8.34125 13.745 -9 14 C-7.65070536 10.16336928 -5.92248975 7.34827431 -3.375 4.1875 C-2.42753906 3.00220703 -2.42753906 3.00220703 -1.4609375 1.79296875 C-0.97882812 1.20128906 -0.49671875 0.60960938 0 0 Z " fill="#B5D7D5" transform="translate(60,98)"/>
<path d="M0 0 C0 2.31 0 4.62 0 7 C-3.65316671 5.75023244 -4.78065836 5.32901247 -7 2 C-2.25 0 -2.25 0 0 0 Z " fill="#96BFBB" transform="translate(206,313)"/>
<path d="M0 0 C0.99 0.33 1.98 0.66 3 1 C0.03 3.97 -2.94 6.94 -6 10 C-6.33 9.01 -6.66 8.02 -7 7 C-5.25 4.3125 -5.25 4.3125 -3 2 C-2.01 2 -1.02 2 0 2 C0 1.34 0 0.68 0 0 Z " fill="#BDAC7A" transform="translate(303,278)"/>
<path d="M0 0 C0.33 1.32 0.66 2.64 1 4 C0.34 4 -0.32 4 -1 4 C-1 4.99 -1 5.98 -1 7 C0.98 6.67 2.96 6.34 5 6 C2.6875 8.5 2.6875 8.5 0 11 C-0.99 11 -1.98 11 -3 11 C-2.25 3.375 -2.25 3.375 0 0 Z " fill="#D7CDB2" transform="translate(217,112)"/>
<path d="M0 0 C2.9297008 2.82506863 5.50174717 5.78796065 8 9 C7.67 9.66 7.34 10.32 7 11 C6.21625 10.360625 5.4325 9.72125 4.625 9.0625 C2.20460719 7.01857687 2.20460719 7.01857687 0 6 C-0.6875 3.5 -0.6875 3.5 -1 1 C-0.67 0.67 -0.34 0.34 0 0 Z " fill="#B5D4D1" transform="translate(108,199)"/>
<path d="M0 0 C-2.28703308 1.19725883 -4.57884862 2.38297018 -6.875 3.5625 C-7.52597656 3.90474609 -8.17695312 4.24699219 -8.84765625 4.59960938 C-10.53529857 5.46082891 -12.26579593 6.23686703 -14 7 C-14.66 6.67 -15.32 6.34 -16 6 C-13.78515727 1.71797073 -10.56861559 0.8562052 -6.25390625 -0.58203125 C-3.80843764 -1.0355237 -2.336526 -0.78239025 0 0 Z " fill="#C4DFDD" transform="translate(136,106)"/>
<path d="M0 0 C6.875 0.875 6.875 0.875 8 2 C8.04080783 3.99958364 8.04254356 6.00045254 8 8 C6.85073734 7.04578192 5.70569459 6.08647955 4.5625 5.125 C3.92441406 4.59132813 3.28632813 4.05765625 2.62890625 3.5078125 C1 2 1 2 0 0 Z " fill="#D7CAA4" transform="translate(338,106)"/>
<path d="M0 0 C1.14175295 3.75261458 0.60183973 5.41941707 -1 9 C-1 9.66 -1 10.32 -1 11 C-3.5 12.625 -3.5 12.625 -6 14 C-4.50829734 9.0276578 -2.39542583 4.58154261 0 0 Z " fill="#E4DABD" transform="translate(324,182)"/>
<path d="M0 0 C0.33 0.66 0.66 1.32 1 2 C-0.88673414 6.08792398 -2.94666466 8.07466572 -7 10 C-7.99 10 -8.98 10 -10 10 C-6.7 6.7 -3.4 3.4 0 0 Z " fill="#BFA975" transform="translate(319,239)"/>
<path d="M0 0 C3.96 1.98 7.92 3.96 12 6 C12 6.99 12 7.98 12 9 C11.67 8.34 11.34 7.68 11 7 C8.67843403 6.59270772 6.3431213 6.25561323 4 6 C4 5.01 4 4.02 4 3 C2.68 2.67 1.36 2.34 0 2 C0 1.34 0 0.68 0 0 Z " fill="#C0AC7C" transform="translate(305,94)"/>
<path d="M0 0 C0.55171875 0.22558594 1.1034375 0.45117188 1.671875 0.68359375 C0.310625 1.33328125 0.310625 1.33328125 -1.078125 1.99609375 C-4.26418082 3.50702677 -4.26418082 3.50702677 -6.453125 5.43359375 C-8.328125 6.68359375 -8.328125 6.68359375 -10.4453125 6.26171875 C-11.06664063 6.0709375 -11.68796875 5.88015625 -12.328125 5.68359375 C-10.75465324 4.64762475 -9.16890954 3.63027643 -7.578125 2.62109375 C-6.69640625 2.05261719 -5.8146875 1.48414062 -4.90625 0.8984375 C-2.328125 -0.31640625 -2.328125 -0.31640625 0 0 Z " fill="#C0DBD8" transform="translate(121.328125,92.31640625)"/>
<path d="M0 0 C0 3.29222682 -0.41495585 4.02719653 -2.25 6.625 C-2.66765625 7.23601562 -3.0853125 7.84703125 -3.515625 8.4765625 C-5.27840279 10.28572918 -6.53955077 10.61095461 -9 11 C-8.34 9.68 -7.68 8.36 -7 7 C-6.34 7 -5.68 7 -5 7 C-4.731875 6.401875 -4.46375 5.80375 -4.1875 5.1875 C-3.01506533 3.02775192 -1.80630718 1.64209744 0 0 Z " fill="#E2D8BB" transform="translate(305,212)"/>
<path d="M0 0 C1.32 0 2.64 0 4 0 C2.52307692 4.67692308 2.52307692 4.67692308 -0.125 6.3125 C-1.053125 6.6528125 -1.053125 6.6528125 -2 7 C-1.125 2.25 -1.125 2.25 0 0 Z " fill="#D3C8A0" transform="translate(361,215)"/>
<path d="M0 0 C0.66 0 1.32 0 2 0 C1.48594831 4.96916636 0.76615118 9.29026351 -1 14 C-1.33 14 -1.66 14 -2 14 C-2 11.36 -2 8.72 -2 6 C-1.34 6 -0.68 6 0 6 C0 4.02 0 2.04 0 0 Z " fill="#DFD2B3" transform="translate(380,176)"/>
<path d="M0 0 C0 0.99 0 1.98 0 3 C-1.28650706 3.69710731 -2.57940665 4.38242876 -3.875 5.0625 C-4.95394531 5.63677734 -4.95394531 5.63677734 -6.0546875 6.22265625 C-6.69664062 6.47917969 -7.33859375 6.73570313 -8 7 C-8.66 6.67 -9.32 6.34 -10 6 C-8.71283353 4.99421411 -7.42011342 3.99553202 -6.125 3 C-5.40570313 2.443125 -4.68640625 1.88625 -3.9453125 1.3125 C-2 0 -2 0 0 0 Z " fill="#DCD0B0" transform="translate(250,77)"/>
<path d="M0 0 C-1.78810766 0.69670416 -3.58062052 1.38211189 -5.375 2.0625 C-6.37273437 2.44535156 -7.37046875 2.82820313 -8.3984375 3.22265625 C-11 4 -11 4 -13 3 C-13 2.34 -13 1.68 -13 1 C-11.58622218 0.63447197 -10.16879424 0.28304505 -8.75 -0.0625 C-7.96109375 -0.25972656 -7.1721875 -0.45695312 -6.359375 -0.66015625 C-3.89605178 -1.01497267 -2.34395868 -0.76877544 0 0 Z " fill="#E1D2B4" transform="translate(248,105)"/>
<path d="M0 0 C-2.09782787 2.09782787 -3.3799207 2.6509396 -6.125 3.625 C-6.84945312 3.88539062 -7.57390625 4.14578125 -8.3203125 4.4140625 C-9.15175781 4.70410156 -9.15175781 4.70410156 -10 5 C-10.33 4.01 -10.66 3.02 -11 2 C-7.17010894 0.19769832 -4.21878192 -0.19622241 0 0 Z " fill="#AECCCA" transform="translate(109,91)"/>
<path d="M0 0 C0 2 0 2 -2.375 4.625 C-5 7 -5 7 -7 7 C-7 5.02 -7 3.04 -7 1 C-4.53721199 -0.231394 -2.7204945 -0.07159196 0 0 Z " fill="#86B3A7" transform="translate(232,77)"/>
<path d="M0 0 C-0.33 0.66 -0.66 1.32 -1 2 C-4.06909445 2.66719444 -6.85786017 3 -10 3 C-6.46873184 -0.69178035 -5.02635024 -1.19045137 0 0 Z " fill="#5D9B8D" transform="translate(235,75)"/>
<path d="M0 0 C1.33333333 2.66666667 2.66666667 5.33333333 4 8 C3.34 8 2.68 8 2 8 C2 8.66 2 9.32 2 10 C1.01 10 0.02 10 -1 10 C-1.02689216 8.52093108 -1.04634621 7.04172517 -1.0625 5.5625 C-1.07410156 4.73878906 -1.08570313 3.91507812 -1.09765625 3.06640625 C-1 1 -1 1 0 0 Z " fill="#DBD3BC" transform="translate(217,353)"/>
<path d="M0 0 C1.65 0 3.3 0 5 0 C4.07347299 1.17539996 3.13336613 2.34010577 2.1875 3.5 C1.66542969 4.1496875 1.14335937 4.799375 0.60546875 5.46875 C-1 7 -1 7 -4 7 C-3.525625 6.5875 -3.05125 6.175 -2.5625 5.75 C-0.83733482 3.817815 -0.43415125 2.51807725 0 0 Z " fill="#DDD1B1" transform="translate(250,288)"/>
<path d="M0 0 C0 4.05480631 -1.54870092 5.84832975 -4 9 C-4.99 9 -5.98 9 -7 9 C-6.82374165 6.62051228 -6.30280227 5.29774151 -4.59765625 3.62109375 C-3.09350908 2.37884514 -1.54870149 1.18623944 0 0 Z " fill="#D5C7A2" transform="translate(295,223)"/>
<path d="M0 0 C2.93200474 2.85276137 5.64315404 5.65079784 8 9 C7.67 9.66 7.34 10.32 7 11 C4.625 10 4.625 10 2 8 C0.95231959 5.33078407 0.51315454 2.84567517 0 0 Z " fill="#BAD8D4" transform="translate(79,207)"/>
<path d="M0 0 C2.82858266 3.36736031 4.4998253 6.87451958 6 11 C5.67 11.99 5.34 12.98 5 14 C3.96692229 12.23628182 2.94887951 10.46374967 1.9375 8.6875 C1.36902344 7.70136719 0.80054688 6.71523437 0.21484375 5.69921875 C-1 3 -1 3 0 0 Z " fill="#BBAB79" transform="translate(322,128)"/>
<path d="M0 0 C4.20626034 1.50223584 5.73900021 4.28550034 8 8 C7.67 8.66 7.34 9.32 7 10 C3.935084 7.95672267 2.5067802 6.33644187 1 3 C0.34 2.34 -0.32 1.68 -1 1 C-0.67 0.67 -0.34 0.34 0 0 Z " fill="#D8CCAA" transform="translate(331,114)"/>
<path d="M0 0 C3.63 1.32 7.26 2.64 11 4 C10.01 4.66 9.02 5.32 8 6 C8 5.34 8 4.68 8 4 C7.05125 4.20625 6.1025 4.4125 5.125 4.625 C4.09375 4.74875 3.0625 4.8725 2 5 C1.34 4.34 0.68 3.68 0 3 C0 2.01 0 1.02 0 0 Z " fill="#CDBA8A" transform="translate(328,72)"/>
<path d="M0 0 C2.31 1.98 4.62 3.96 7 6 C4 7 4 7 1 6 C0.67 4.02 0.34 2.04 0 0 Z " fill="#ACCDC7" transform="translate(106,240)"/>
<path d="M0 0 C2.9375 1.25 2.9375 1.25 6 3 C6.875 5.1875 6.875 5.1875 7 7 C6.01 7 5.02 7 4 7 C0 2.65714286 0 2.65714286 0 0 Z " fill="#B4D2CF" transform="translate(95,213)"/>
<path d="M0 0 C0.66 0 1.32 0 2 0 C1.25 7.625 1.25 7.625 -1 11 C-1.02688151 9.35425434 -1.04634123 7.70838587 -1.0625 6.0625 C-1.07410156 5.14597656 -1.08570312 4.22945312 -1.09765625 3.28515625 C-1 1 -1 1 0 0 Z " fill="#BCD7D4" transform="translate(97,138)"/>
<path d="M0 0 C3.44216672 2.6598561 3.99504674 5.90288286 5 10 C4.34 9.67 3.68 9.34 3 9 C3 8.34 3 7.68 3 7 C2.01 6.67 1.02 6.34 0 6 C0 4.02 0 2.04 0 0 Z " fill="#DCCCA9" transform="translate(372,111)"/>
<path d="M0 0 C1.65 0 3.3 0 5 0 C5.33 0.99 5.66 1.98 6 3 C3.36 3.33 0.72 3.66 -2 4 C-1.34 2.68 -0.68 1.36 0 0 Z " fill="#7BB2AD" transform="translate(143,98)"/>
<path d="M0 0 C4.3177458 0.50797009 8.03302114 1.19682779 12 3 C7.99608513 4.60156595 4.92968808 3.4087561 1 2 C0.67 1.34 0.34 0.68 0 0 Z " fill="#C0A97C" transform="translate(290,89)"/>
<path d="M0 0 C0.99 0.33 1.98 0.66 3 1 C1.02 3.31 -0.96 5.62 -3 8 C-3.66 7.67 -4.32 7.34 -5 7 C-3.70700306 4.11562221 -2.34058637 2.12780579 0 0 Z " fill="#D7CAA5" transform="translate(245,333)"/>
<path d="M0 0 C0.66 0.33 1.32 0.66 2 1 C-1.96 4.465 -1.96 4.465 -6 8 C-6 5 -6 5 -4.6875 3.61328125 C-3.125 2.40885417 -1.5625 1.20442708 0 0 Z " fill="#FBF6E5" transform="translate(247,305)"/>
<path d="M0 0 C2.5 1.375 2.5 1.375 5 3 C5 3.66 5 4.32 5 5 C5.99 5.33 6.98 5.66 8 6 C7.01 6.33 6.02 6.66 5 7 C4.34 6.67 3.68 6.34 3 6 C3 5.34 3 4.68 3 4 C2.01 4 1.02 4 0 4 C0 2.68 0 1.36 0 0 Z " fill="#B2D0CD" transform="translate(192,321)"/>
<path d="M0 0 C3.7952131 1.49097658 5.61042731 3.75700849 8 7 C5.125 6.3125 5.125 6.3125 2 5 C0.625 2.375 0.625 2.375 0 0 Z " fill="#B9D8D5" transform="translate(162,256)"/>
<path d="M0 0 C3.25 -0.3125 3.25 -0.3125 7 0 C9.4375 2.5 9.4375 2.5 11 5 C7.27566618 3.7874262 3.62197194 2.49140021 0 1 C0 0.67 0 0.34 0 0 Z " fill="#E3D8BB" transform="translate(314,91)"/>
<path d="M0 0 C2.31 0 4.62 0 7 0 C5.59240479 2.81519043 3.77416723 3.61291638 1 5 C0.01 4.67 -0.98 4.34 -2 4 C-1.34 3.34 -0.68 2.68 0 2 C0 1.34 0 0.68 0 0 Z " fill="#A0C4B6" transform="translate(242,66)"/>
<path d="M0 0 C2.97 0.495 2.97 0.495 6 1 C6.66 2.98 7.32 4.96 8 7 C4.2047869 5.50902342 2.38957269 3.24299151 0 0 Z " fill="#BEDBD8" transform="translate(157,277)"/>
<path d="M0 0 C0.66 0.33 1.32 0.66 2 1 C-0.31 3.31 -2.62 5.62 -5 8 C-5 4.86248779 -4.64820195 3.60242414 -3 1 C-2.01 0.67 -1.02 0.34 0 0 Z " fill="#C0AB7A" transform="translate(310,232)"/>
<path d="M0 0 C0.66 0.33 1.32 0.66 2 1 C2 1.66 2 2.32 2 3 C1.34 3 0.68 3 0 3 C0 3.66 0 4.32 0 5 C-2 6.625 -2 6.625 -4 8 C-4.66 7.67 -5.32 7.34 -6 7 C-4.02 4.69 -2.04 2.38 0 0 Z " fill="#BBAC77" transform="translate(308,210)"/>
<path d="M0 0 C2.64 0.33 5.28 0.66 8 1 C8 1.99 8 2.98 8 4 C8.66 4.33 9.32 4.66 10 5 C9.01 5 8.02 5 7 5 C7 4.34 7 3.68 7 3 C5.824375 2.814375 5.824375 2.814375 4.625 2.625 C2 2 2 2 0 0 Z " fill="#B3D1C7" transform="translate(166,62)"/>
<path d="M0 0 C0 0.66 0 1.32 0 2 C-2.97 2.66 -5.94 3.32 -9 4 C-8.67 3.01 -8.34 2.02 -8 1 C-5.23735711 0.40267181 -2.83967231 0 0 0 Z " fill="#8CBCAE" transform="translate(266,58)"/>
<path d="M0 0 C1.98 0.66 3.96 1.32 6 2 C6 2.99 6 3.98 6 5 C3.625 4.6875 3.625 4.6875 1 4 C0.34 3.01 -0.32 2.02 -1 1 C-0.67 0.67 -0.34 0.34 0 0 Z " fill="#BECFCC" transform="translate(299,52)"/>
<path d="M0 0 C1.258125 0.12375 2.51625 0.2475 3.8125 0.375 C4.87404297 0.47941406 4.87404297 0.47941406 5.95703125 0.5859375 C8 1 8 1 11 3 C3.49230769 3.36923077 3.49230769 3.36923077 1 1.5 C0.67 1.005 0.34 0.51 0 0 Z " fill="#A0C1B9" transform="translate(172,45)"/>
<path d="M0 0 C3.7952131 1.49097658 5.61042731 3.75700849 8 7 C5.6875 6.875 5.6875 6.875 3 6 C1.1875 2.9375 1.1875 2.9375 0 0 Z " fill="#C1DFDA" transform="translate(147,280)"/>
<path d="M0 0 C2.97 0.495 2.97 0.495 6 1 C5.67 2.65 5.34 4.3 5 6 C3.0625 5.25 3.0625 5.25 1 4 C0.25 1.875 0.25 1.875 0 0 Z " fill="#9CC5C0" transform="translate(122,282)"/>
<path d="M0 0 C1.98 1.65 3.96 3.3 6 5 C5.38125 5.144375 4.7625 5.28875 4.125 5.4375 C1.96741678 5.93152225 1.96741678 5.93152225 0 7 C0 4.69 0 2.38 0 0 Z " fill="#A8CDC7" transform="translate(121,255)"/>
<path d="M0 0 C1.32 0 2.64 0 4 0 C2.75453595 3.73639216 1.36595047 4.18756513 -2 6 C-2 2 -2 2 0 0 Z " fill="#C8BA8D" transform="translate(314,226)"/>
<path d="M0 0 C0.33 0 0.66 0 1 0 C3.27678571 8.03571429 3.27678571 8.03571429 2 12 C-0.13586678 8.79619983 -0.23132175 7.98060033 -0.125 4.3125 C-0.10695312 3.50425781 -0.08890625 2.69601563 -0.0703125 1.86328125 C-0.04710937 1.24839844 -0.02390625 0.63351563 0 0 Z " fill="#D9EAE8" transform="translate(64,168)"/>
<path d="M0 0 C0.99 0.33 1.98 0.66 3 1 C2.01 4.3 1.02 7.6 0 11 C-0.33 11 -0.66 11 -1 11 C-0.67 7.37 -0.34 3.74 0 0 Z " fill="#C1D7D5" transform="translate(68,125)"/>
<path d="M0 0 C3.34373475 0.55728913 6.03312999 1.35173889 9 3 C9 3.33 9 3.66 9 4 C7.02 4 5.04 4 3 4 C2.67 3.01 2.34 2.02 2 1 C1.34 0.67 0.68 0.34 0 0 Z " fill="#92B7AB" transform="translate(183,48)"/>
<path d="M0 0 C0.66 0.33 1.32 0.66 2 1 C2 1.99 2 2.98 2 4 C2.66 4.33 3.32 4.66 4 5 C3.34 5.66 2.68 6.32 2 7 C0.4375 5.75 0.4375 5.75 -1 4 C-0.6875 1.8125 -0.6875 1.8125 0 0 Z " fill="#98C3C0" transform="translate(106,264)"/>
<path d="M0 0 C0.99 0 1.98 0 3 0 C3.66 2.64 4.32 5.28 5 8 C2.20127563 5.47211993 0.54226981 3.79588866 0 0 Z " fill="#B4D1CE" transform="translate(88,202)"/>
<path d="M0 0 C0.66 0 1.32 0 2 0 C2.69289369 3.72430357 3.11144596 7.21083746 3 11 C0.87953208 7.46588679 0.46800711 4.05606165 0 0 Z " fill="#B9D9D4" transform="translate(42,176)"/>
<path d="M0 0 C2.3125 0.125 2.3125 0.125 5 1 C6.8125 4.0625 6.8125 4.0625 8 7 C6 7 6 7 3.4375 4.625 C1 2 1 2 0 0 Z " fill="#E4D8B9" transform="translate(330,99)"/>
<path d="M0 0 C1.65 0 3.3 0 5 0 C5 1.32 5 2.64 5 4 C3.35 3.67 1.7 3.34 0 3 C0 2.01 0 1.02 0 0 Z " fill="#B1CEC3" transform="translate(209,97)"/>
<path d="" fill="#FFFFFF" transform="translate(0,0)"/>
<path d="" fill="#FFFFFF" transform="translate(0,0)"/>
</svg>
